<svg width="225" height="60" viewBox="0 0 225 60" fill="none" xmlns="http://www.w3.org/2000/svg">
<rect width="225" height="60" rx="5" fill="white"/>
<g filter="url(#filter0_d_701_1054)">
<path d="M77.8955 39H75.3174L71.4209 35.1182V23.4434L75.3174 19.5615H77.8955V39ZM78.9209 23.4434V19.5615H85.8203L89.7021 23.4434V27.3545H83.2275V23.4434H78.9209ZM78.9209 39V35.1182H83.2275V32.2764H89.7021V35.1182L85.8203 39H78.9209ZM105.119 39V31.7197H96.7111L92.8146 27.8232V23.4434L96.7111 19.5615H98.9084V26.4609H107.844L111.609 30.3574V35.1182L107.727 39H105.119ZM99.9338 23.0625V19.5615H107.712L111.081 22.9453V25.0107H105.119V23.0625H99.9338ZM92.8146 33.1699H99.2893V35.4844H104.094V39H96.0812L92.8146 35.1182V33.1699ZM127.07 39V31.7197H118.662L114.765 27.8232V23.4434L118.662 19.5615H120.859V26.4609H129.794L133.559 30.3574V35.1182L129.677 39H127.07ZM121.884 23.0625V19.5615H129.662L133.032 22.9453V25.0107H127.07V23.0625H121.884ZM114.765 33.1699H121.24V35.4844H126.044V39H118.032L114.765 35.1182V33.1699ZM159.779 19.5615L163.676 23.4434V27.2666L161.376 29.2148L163.676 31.1924V35.1328L159.779 39H157.186V30.7969H152.675V27.4131H157.186V19.5615H159.779ZM151.356 23.6924V26.5342H144.882V23.4434L148.763 19.5615H156.161V23.6924H151.356ZM144.882 35.1182V32.1152H151.356V34.8545H156.161V39H148.763L144.882 35.1182Z" fill="#1572B6"/>
</g>
<g filter="url(#filter1_ii_701_1054)">
<path d="M10 10C10 7.23858 12.2386 5 15 5H55C57.7614 5 60 7.23858 60 10V50C60 52.7614 57.7614 55 55 55H15C12.2386 55 10 52.7614 10 50V10Z" fill="white"/>
</g>
<path d="M19.2218 48.5016L15.7124 9.125H54.2874L50.7733 48.4953L34.9765 52.875L19.2218 48.5016Z" fill="#1572B6"/>
<path d="M35 49.5282L47.7656 45.9891L50.7687 12.3453H35V49.5282Z" fill="#33A9DC"/>
<path d="M35 26.6109H41.3906L41.8312 21.6656H35V16.8359H35.0172H47.1094L46.9938 18.1312L45.8078 31.4406H35V26.6109Z" fill="white"/>
<path d="M35.0297 39.1531L35.0078 39.1594L29.6297 37.7062L29.2859 33.8547H26.6719H24.4375L25.1141 41.4375L35.0062 44.1844L35.0297 44.1781V39.1531Z" fill="#EBEBEB"/>
<path d="M40.9799 31.236L40.3986 37.7032L35.0127 39.1563V44.1813L44.9127 41.4375L44.9861 40.6219L45.8252 31.236H40.9799Z" fill="white"/>
<path d="M35.0174 16.8359V19.8359V21.6531V21.6656H23.3674H23.3518L23.2549 20.5797L23.0346 18.1312L22.9189 16.8359H35.0174Z" fill="#EBEBEB"/>
<path d="M35 26.611V29.611V31.4282V31.4406H29.7047H29.6891L29.5922 30.3547L29.3734 27.9063L29.2578 26.611H35Z" fill="#EBEBEB"/>
<defs>
<filter id="filter0_d_701_1054" x="71.4209" y="19.5615" width="94.2549" height="21.4385" filterUnits="userSpaceOnUse" color-interpolation-filters="sRGB">
<feFlood flood-opacity="0" result="BackgroundImageFix"/>
<feColorMatrix in="SourceAlpha" type="matrix" values="0 0 0 0 0 0 0 0 0 0 0 0 0 0 0 0 0 0 127 0" result="hardAlpha"/>
<feOffset dx="1" dy="1"/>
<feGaussianBlur stdDeviation="0.5"/>
<feComposite in2="hardAlpha" operator="out"/>
<feColorMatrix type="matrix" values="0 0 0 0 0 0 0 0 0 0 0 0 0 0 0 0 0 0 0.5 0"/>
<feBlend mode="normal" in2="BackgroundImageFix" result="effect1_dropShadow_701_1054"/>
<feBlend mode="normal" in="SourceGraphic" in2="effect1_dropShadow_701_1054" result="shape"/>
</filter>
<filter id="filter1_ii_701_1054" x="9" y="4" width="51" height="51" filterUnits="userSpaceOnUse" color-interpolation-filters="sRGB">
<feFlood flood-opacity="0" result="BackgroundImageFix"/>
<feBlend mode="normal" in="SourceGraphic" in2="BackgroundImageFix" result="shape"/>
<feColorMatrix in="SourceAlpha" type="matrix" values="0 0 0 0 0 0 0 0 0 0 0 0 0 0 0 0 0 0 127 0" result="hardAlpha"/>
<feOffset/>
<feGaussianBlur stdDeviation="0.5"/>
<feComposite in2="hardAlpha" operator="arithmetic" k2="-1" k3="1"/>
<feColorMatrix type="matrix" values="0 0 0 0 0.129412 0 0 0 0 0.0235294 0 0 0 0 0.0235294 0 0 0 0.5 0"/>
<feBlend mode="normal" in2="shape" result="effect1_innerShadow_701_1054"/>
<feColorMatrix in="SourceAlpha" type="matrix" values="0 0 0 0 0 0 0 0 0 0 0 0 0 0 0 0 0 0 127 0" result="hardAlpha"/>
<feOffset dx="-1" dy="-1"/>
<feGaussianBlur stdDeviation="1"/>
<feComposite in2="hardAlpha" operator="arithmetic" k2="-1" k3="1"/>
<feColorMatrix type="matrix" values="0 0 0 0 0.129167 0 0 0 0 0.0236806 0 0 0 0 0.0236806 0 0 0 1 0"/>
<feBlend mode="normal" in2="effect1_innerShadow_701_1054" result="effect2_innerShadow_701_1054"/>
</filter>
</defs>
</svg>
