<svg width="225" height="60" viewBox="0 0 225 60" fill="none" xmlns="http://www.w3.org/2000/svg">
<rect width="225" height="60" rx="5" fill="white"/>
<g filter="url(#filter0_d_701_991)">
<path d="M78.1885 31.0166V39H71.7139V19.5615H78.1885V27.2666H84.3848V31.0166H78.1885ZM79.2139 23.3262V19.5615H89.3359V25.1865H83.2422V23.3262H79.2139ZM79.2139 39V35.1182H82.8613V33.1699H89.3359V39H79.2139ZM97.5754 23.4434L107.932 39H101.208L90.8371 23.4434H97.5754ZM100.11 25.5967L101.208 23.4434H107.932L103.449 30.6211L100.11 25.5967ZM97.5754 39H90.8371L95.1584 31.5879L98.6301 36.8174L97.5754 39ZM109.565 44.1855V23.4434H116.039V44.1855H109.565ZM119.921 27.3252H117.065V25.3623L118.969 23.4434H122.514L126.411 27.3252V35.1182L122.514 39H117.065V35.3672H119.921V27.3252ZM139.909 27.3252H137.155V25.626L139.323 23.4434H143.249L146.398 27.0762V31.1045H139.909V27.3252ZM129.64 39V23.4434H136.115V39H129.64ZM155.033 39H152.44L148.558 35.1182V27.3252L152.44 23.4434H155.033V39ZM156.058 32.7598V30.0498H159.471V27.3252H156.058V23.4434H161.552L165.433 27.3252V32.7598H156.058ZM156.058 39V35.3672H164.76V37.0518L162.826 39H156.058ZM171.886 23.4434H174.479V28.9365H181.861L185.23 32.335V35.3672L181.612 39H178.756V33.126H171.754L168.385 29.8887V26.9297L171.886 23.4434ZM174.859 36.1436H177.73V39L171.065 38.9854L168.37 35.792V34.5469H174.859V36.1436ZM178.756 26.2998H175.504V23.4434H182.389L184.703 25.7578V27.5156H178.756V26.2998ZM191.463 23.4434H194.056V28.9365H201.439L204.808 32.335V35.3672L201.19 39H198.333V33.126H191.331L187.962 29.8887V26.9297L191.463 23.4434ZM194.437 36.1436H197.308V39L190.643 38.9854L187.947 35.792V34.5469H194.437V36.1436ZM198.333 26.2998H195.081V23.4434H201.966L204.28 25.7578V27.5156H198.333V26.2998Z" fill="black"/>
</g>
<g filter="url(#filter1_ii_701_991)">
<path d="M10 10C10 7.23858 12.2386 5 15 5H55C57.7614 5 60 7.23858 60 10V50C60 52.7614 57.7614 55 55 55H15C12.2386 55 10 52.7614 10 50V10Z" fill="white"/>
</g>
<g clip-path="url(#clip0_701_991)">
<path d="M57 13H12V47.6154H57V13Z" fill="#FDFDFD"/>
<path d="M26.6424 40.1384C25.0501 40.1384 23.677 39.8731 22.5232 39.3423C21.3924 38.7884 20.4578 38.0615 19.7193 37.1615C18.9809 36.2385 18.427 35.2115 18.0578 34.0807C17.7117 32.9269 17.5386 31.7615 17.5386 30.5846V30.1C17.5386 28.9231 17.7232 27.7692 18.0924 26.6384C18.4617 25.5077 19.0039 24.4923 19.7193 23.5923C20.4578 22.6923 21.3809 21.9769 22.4886 21.4461C23.6193 20.8923 24.9347 20.6154 26.4347 20.6154C28.3501 20.6154 29.9424 21.0423 31.2117 21.8961C32.5039 22.7269 33.4731 23.823 34.1193 25.1846C34.7655 26.523 35.0886 27.9423 35.0886 29.4423V30.7923H20.0309C20.077 32.1077 20.3424 33.3076 20.827 34.3923C21.3117 35.4538 22.0386 36.2961 23.0078 36.9192C23.977 37.5423 25.1886 37.8538 26.6424 37.8538C28.2347 37.8538 29.527 37.4961 30.5193 36.7807C31.5116 36.0654 32.1231 35.2 32.354 34.1846H34.777C34.4078 36.0076 33.4963 37.4615 32.0424 38.5461C30.6116 39.6076 28.8116 40.1384 26.6424 40.1384ZM26.4347 22.9C24.5655 22.9 23.1001 23.4538 22.0386 24.5615C21.0001 25.6692 20.3655 27.0769 20.1347 28.7846H32.5617C32.4001 27.0308 31.8001 25.6115 30.7617 24.5269C29.7232 23.4423 28.2808 22.9 26.4347 22.9ZM35.0331 39.55L41.5754 30.2384L35.4485 21.2384H38.287L43.1331 28.4384H43.6177L48.2216 21.2384H50.887L45.1408 29.9961L52.0293 39.55H49.1908L43.5831 31.7615H43.1331L37.6985 39.55H35.0331Z" fill="black"/>
</g>
<defs>
<filter id="filter0_d_701_991" x="71.7139" y="19.5615" width="135.094" height="26.624" filterUnits="userSpaceOnUse" color-interpolation-filters="sRGB">
<feFlood flood-opacity="0" result="BackgroundImageFix"/>
<feColorMatrix in="SourceAlpha" type="matrix" values="0 0 0 0 0 0 0 0 0 0 0 0 0 0 0 0 0 0 127 0" result="hardAlpha"/>
<feOffset dx="1" dy="1"/>
<feGaussianBlur stdDeviation="0.5"/>
<feComposite in2="hardAlpha" operator="out"/>
<feColorMatrix type="matrix" values="0 0 0 0 0 0 0 0 0 0 0 0 0 0 0 0 0 0 0.5 0"/>
<feBlend mode="normal" in2="BackgroundImageFix" result="effect1_dropShadow_701_991"/>
<feBlend mode="normal" in="SourceGraphic" in2="effect1_dropShadow_701_991" result="shape"/>
</filter>
<filter id="filter1_ii_701_991" x="9" y="4" width="51" height="51" filterUnits="userSpaceOnUse" color-interpolation-filters="sRGB">
<feFlood flood-opacity="0" result="BackgroundImageFix"/>
<feBlend mode="normal" in="SourceGraphic" in2="BackgroundImageFix" result="shape"/>
<feColorMatrix in="SourceAlpha" type="matrix" values="0 0 0 0 0 0 0 0 0 0 0 0 0 0 0 0 0 0 127 0" result="hardAlpha"/>
<feOffset/>
<feGaussianBlur stdDeviation="0.5"/>
<feComposite in2="hardAlpha" operator="arithmetic" k2="-1" k3="1"/>
<feColorMatrix type="matrix" values="0 0 0 0 0.129412 0 0 0 0 0.0235294 0 0 0 0 0.0235294 0 0 0 0.5 0"/>
<feBlend mode="normal" in2="shape" result="effect1_innerShadow_701_991"/>
<feColorMatrix in="SourceAlpha" type="matrix" values="0 0 0 0 0 0 0 0 0 0 0 0 0 0 0 0 0 0 127 0" result="hardAlpha"/>
<feOffset dx="-1" dy="-1"/>
<feGaussianBlur stdDeviation="1"/>
<feComposite in2="hardAlpha" operator="arithmetic" k2="-1" k3="1"/>
<feColorMatrix type="matrix" values="0 0 0 0 0.129167 0 0 0 0 0.0236806 0 0 0 0 0.0236806 0 0 0 1 0"/>
<feBlend mode="normal" in2="effect1_innerShadow_701_991" result="effect2_innerShadow_701_991"/>
</filter>
<clipPath id="clip0_701_991">
<rect width="45" height="34.6154" fill="white" transform="translate(12 13)"/>
</clipPath>
</defs>
</svg>
