<svg width="225" height="60" viewBox="0 0 225 60" fill="none" xmlns="http://www.w3.org/2000/svg">
<rect width="225" height="60" rx="5" fill="white"/>
<g filter="url(#filter0_d_701_939)">
<path d="M71.7139 19.5615H78.1885V28.248H84.165V32.0713H78.1885V39H71.7139V19.5615ZM79.2139 23.4434V19.5615H89.0869V26.0068H82.6123V23.4434H79.2139ZM91.3205 23.4434H97.8098V39H91.3205V23.4434ZM91.3205 17.3789H97.8098V21.5098H91.3205V17.3789ZM111.425 27.3252H108.554V23.4434H114.018L117.9 27.3252V40.5381L114.018 44.4492H105.478L103.53 42.4863V41.0508H111.425V27.3252ZM110.4 35.3672V37.0811L108.466 39H104.936L101.054 35.1182V27.3252L104.936 23.4434H107.529V35.3672H110.4ZM121.335 39V23.4434H127.824V39H121.335ZM131.486 27.3252H128.849V25.4941L130.885 23.4434H135.895L137.975 25.5234V39H131.486V27.3252ZM141.637 27.3252H139.001V25.5234L140.993 23.4434H144.948L148.112 26.6367V39H141.637V27.3252ZM161.61 39V27.3252H152.396V25.3916L154.345 23.4434H164.056L167.938 27.3252V39H161.61ZM160.585 29.9473V32.6426H157.245V35.3672H160.585V37.0811L158.651 39H153.7L151.093 36.4365V32.54L153.7 29.9473H160.585Z" fill="#F24E1E"/>
</g>
<g filter="url(#filter1_ii_701_939)">
<path d="M10 10C10 7.23858 12.2386 5 15 5H55C57.7614 5 60 7.23858 60 10V50C60 52.7614 57.7614 55 55 55H15C12.2386 55 10 52.7614 10 50V10Z" fill="white"/>
</g>
<path d="M27.0059 52C28.995 52 30.9026 51.2098 32.3092 49.8033C33.7157 48.3968 34.5059 46.4891 34.5059 44.5V37H27.0059C25.0167 37 23.1091 37.7902 21.7026 39.1967C20.296 40.6032 19.5059 42.5109 19.5059 44.5C19.5059 46.4891 20.296 48.3968 21.7026 49.8033C23.1091 51.2098 25.0167 52 27.0059 52V52Z" fill="#0ACF83"/>
<path d="M19.5059 29.5C19.5059 27.5109 20.296 25.6032 21.7026 24.1967C23.1091 22.7902 25.0167 22 27.0059 22H34.5059V37H27.0059C25.0167 37 23.1091 36.2098 21.7026 34.8033C20.296 33.3968 19.5059 31.4891 19.5059 29.5V29.5Z" fill="#A259FF"/>
<path d="M19.5059 14.5C19.5059 12.5119 20.2952 10.6051 21.7005 9.19877C23.1057 7.79242 25.0119 7.00155 27 7H34.5V22H27.0059C25.0167 22 23.1091 21.2098 21.7026 19.8033C20.296 18.3968 19.5059 16.4891 19.5059 14.5V14.5Z" fill="#F24E1E"/>
<path d="M34.5059 7H42.0059C43.995 7 45.9026 7.79018 47.3092 9.1967C48.7157 10.6032 49.5059 12.5109 49.5059 14.5C49.5059 16.4891 48.7157 18.3968 47.3092 19.8033C45.9026 21.2098 43.995 22 42.0059 22H34.5059V7Z" fill="#FF7262"/>
<path d="M49.5059 29.5C49.5059 31.4891 48.7157 33.3968 47.3092 34.8033C45.9026 36.2098 43.995 37 42.0059 37C40.0167 37 38.1091 36.2098 36.7026 34.8033C35.296 33.3968 34.5059 31.4891 34.5059 29.5C34.5059 27.5109 35.296 25.6032 36.7026 24.1967C38.1091 22.7902 40.0167 22 42.0059 22C43.995 22 45.9026 22.7902 47.3092 24.1967C48.7157 25.6032 49.5059 27.5109 49.5059 29.5V29.5Z" fill="#1ABCFE"/>
<defs>
<filter id="filter0_d_701_939" x="71.7139" y="17.3789" width="98.2246" height="29.0703" filterUnits="userSpaceOnUse" color-interpolation-filters="sRGB">
<feFlood flood-opacity="0" result="BackgroundImageFix"/>
<feColorMatrix in="SourceAlpha" type="matrix" values="0 0 0 0 0 0 0 0 0 0 0 0 0 0 0 0 0 0 127 0" result="hardAlpha"/>
<feOffset dx="1" dy="1"/>
<feGaussianBlur stdDeviation="0.5"/>
<feComposite in2="hardAlpha" operator="out"/>
<feColorMatrix type="matrix" values="0 0 0 0 0 0 0 0 0 0 0 0 0 0 0 0 0 0 0.5 0"/>
<feBlend mode="normal" in2="BackgroundImageFix" result="effect1_dropShadow_701_939"/>
<feBlend mode="normal" in="SourceGraphic" in2="effect1_dropShadow_701_939" result="shape"/>
</filter>
<filter id="filter1_ii_701_939" x="9" y="4" width="51" height="51" filterUnits="userSpaceOnUse" color-interpolation-filters="sRGB">
<feFlood flood-opacity="0" result="BackgroundImageFix"/>
<feBlend mode="normal" in="SourceGraphic" in2="BackgroundImageFix" result="shape"/>
<feColorMatrix in="SourceAlpha" type="matrix" values="0 0 0 0 0 0 0 0 0 0 0 0 0 0 0 0 0 0 127 0" result="hardAlpha"/>
<feOffset/>
<feGaussianBlur stdDeviation="0.5"/>
<feComposite in2="hardAlpha" operator="arithmetic" k2="-1" k3="1"/>
<feColorMatrix type="matrix" values="0 0 0 0 0.129412 0 0 0 0 0.0235294 0 0 0 0 0.0235294 0 0 0 0.5 0"/>
<feBlend mode="normal" in2="shape" result="effect1_innerShadow_701_939"/>
<feColorMatrix in="SourceAlpha" type="matrix" values="0 0 0 0 0 0 0 0 0 0 0 0 0 0 0 0 0 0 127 0" result="hardAlpha"/>
<feOffset dx="-1" dy="-1"/>
<feGaussianBlur stdDeviation="1"/>
<feComposite in2="hardAlpha" operator="arithmetic" k2="-1" k3="1"/>
<feColorMatrix type="matrix" values="0 0 0 0 0.129167 0 0 0 0 0.0236806 0 0 0 0 0.0236806 0 0 0 1 0"/>
<feBlend mode="normal" in2="effect1_innerShadow_701_939" result="effect2_innerShadow_701_939"/>
</filter>
</defs>
</svg>
