<svg width="228" height="60" viewBox="0 0 228 60" fill="none" xmlns="http://www.w3.org/2000/svg">
<rect width="228" height="60" rx="5" fill="url(#paint0_linear_699_835)"/>
<rect width="228" height="60" rx="5" fill="#1F324E"/>
<g filter="url(#filter0_d_699_835)">
<path d="M71.7139 19.5615H78.1885V28.248H84.165V32.0713H78.1885V39H71.7139V19.5615ZM79.2139 23.4434V19.5615H89.0869V26.0068H82.6123V23.4434H79.2139ZM91.3205 23.4434H97.8098V39H91.3205V23.4434ZM91.3205 17.3789H97.8098V21.5098H91.3205V17.3789ZM111.454 27.3252H108.701V25.626L110.869 23.4434H114.794L117.944 27.0762V31.1045H111.454V27.3252ZM101.186 39V23.4434H107.661V39H101.186ZM126.579 39H123.986L120.104 35.1182V27.3252L123.986 23.4434H126.579V39ZM127.604 32.7598V30.0498H131.017V27.3252H127.604V23.4434H133.097L136.979 27.3252V32.7598H127.604ZM127.604 39V35.3672H136.305V37.0518L134.372 39H127.604ZM146.522 17.5107V39H140.048V17.5107H146.522ZM150.448 27.3252H147.548V25.3623L149.452 23.4434H152.997L156.893 27.3252V35.1182L152.997 39H147.548V35.3672H150.448V27.3252ZM170.23 39V27.3252H161.017V25.3916L162.965 23.4434H172.677L176.559 27.3252V39H170.23ZM169.205 29.9473V32.6426H165.865V35.3672H169.205V37.0811L167.271 39H162.32L159.713 36.4365V32.54L162.32 29.9473H169.205ZM183.172 23.4434H185.765V28.9365H193.148L196.517 32.335V35.3672L192.899 39H190.042V33.126H183.04L179.671 29.8887V26.9297L183.172 23.4434ZM186.146 36.1436H189.017V39L182.352 38.9854L179.656 35.792V34.5469H186.146V36.1436ZM190.042 26.2998H186.79V23.4434H193.675L195.989 25.7578V27.5156H190.042V26.2998ZM205.708 39H203.116L199.234 35.1182V27.3252L203.116 23.4434H205.708V39ZM206.734 32.7598V30.0498H210.147V27.3252H206.734V23.4434H212.227L216.109 27.3252V32.7598H206.734ZM206.734 39V35.3672H215.435V37.0518L213.501 39H206.734Z" fill="#FFCA28"/>
</g>
<g filter="url(#filter1_ii_699_835)">
<path d="M10 10C10 7.23858 12.2386 5 15 5H55C57.7614 5 60 7.23858 60 10V50C60 52.7614 57.7614 55 55 55H15C12.2386 55 10 52.7614 10 50V10Z" fill="white"/>
</g>
<path d="M35.447 15.0297C35.0851 14.3238 34.0726 14.3219 33.7145 15.0297L31.5142 19.1791L26.4414 9.38783C25.9998 8.56846 24.7557 8.77565 24.6114 9.69252L19.5029 42.6222L40.3595 24.5781L35.447 15.0297Z" fill="#FFA000"/>
<path d="M36.1829 28.1912L31.5142 19.18L19.5029 42.6222L36.1829 28.1912Z" fill="#F57F17"/>
<path d="M45.6179 18.0982C45.496 17.3463 44.5726 17.0482 44.0335 17.5882L19.5029 42.6269L33.077 49.765C33.9367 50.245 34.9839 50.245 35.8436 49.766L49.5001 42.6297L45.6179 18.0982Z" fill="#FFCA28"/>
<defs>
<filter id="filter0_d_699_835" x="71.7139" y="17.3789" width="146.395" height="23.6211" filterUnits="userSpaceOnUse" color-interpolation-filters="sRGB">
<feFlood flood-opacity="0" result="BackgroundImageFix"/>
<feColorMatrix in="SourceAlpha" type="matrix" values="0 0 0 0 0 0 0 0 0 0 0 0 0 0 0 0 0 0 127 0" result="hardAlpha"/>
<feOffset dx="1" dy="1"/>
<feGaussianBlur stdDeviation="0.5"/>
<feComposite in2="hardAlpha" operator="out"/>
<feColorMatrix type="matrix" values="0 0 0 0 0 0 0 0 0 0 0 0 0 0 0 0 0 0 0.5 0"/>
<feBlend mode="normal" in2="BackgroundImageFix" result="effect1_dropShadow_699_835"/>
<feBlend mode="normal" in="SourceGraphic" in2="effect1_dropShadow_699_835" result="shape"/>
</filter>
<filter id="filter1_ii_699_835" x="9" y="4" width="51" height="51" filterUnits="userSpaceOnUse" color-interpolation-filters="sRGB">
<feFlood flood-opacity="0" result="BackgroundImageFix"/>
<feBlend mode="normal" in="SourceGraphic" in2="BackgroundImageFix" result="shape"/>
<feColorMatrix in="SourceAlpha" type="matrix" values="0 0 0 0 0 0 0 0 0 0 0 0 0 0 0 0 0 0 127 0" result="hardAlpha"/>
<feOffset/>
<feGaussianBlur stdDeviation="0.5"/>
<feComposite in2="hardAlpha" operator="arithmetic" k2="-1" k3="1"/>
<feColorMatrix type="matrix" values="0 0 0 0 0.129412 0 0 0 0 0.0235294 0 0 0 0 0.0235294 0 0 0 0.5 0"/>
<feBlend mode="normal" in2="shape" result="effect1_innerShadow_699_835"/>
<feColorMatrix in="SourceAlpha" type="matrix" values="0 0 0 0 0 0 0 0 0 0 0 0 0 0 0 0 0 0 127 0" result="hardAlpha"/>
<feOffset dx="-1" dy="-1"/>
<feGaussianBlur stdDeviation="1"/>
<feComposite in2="hardAlpha" operator="arithmetic" k2="-1" k3="1"/>
<feColorMatrix type="matrix" values="0 0 0 0 0.129167 0 0 0 0 0.0236806 0 0 0 0 0.0236806 0 0 0 1 0"/>
<feBlend mode="normal" in2="effect1_innerShadow_699_835" result="effect2_innerShadow_699_835"/>
</filter>
<linearGradient id="paint0_linear_699_835" x1="114" y1="0" x2="114" y2="60" gradientUnits="userSpaceOnUse">
<stop stop-color="#FA6800"/>
<stop offset="1" stop-color="#1F324E"/>
</linearGradient>
</defs>
</svg>
