<svg width="225" height="60" viewBox="0 0 225 60" fill="none" xmlns="http://www.w3.org/2000/svg">
<rect width="225" height="60" rx="5" fill="url(#paint0_linear_699_818)"/>
<rect width="225" height="60" rx="5" fill="#1F324E"/>
<g filter="url(#filter0_d_699_818)">
<path d="M78.1592 35.1182H83.7109V39H75.5664L71.6846 35.1182V23.4434L75.5664 19.5615H78.1592V35.1182ZM81.5869 28.2188H90.4785V39H84.7363V32.0713H81.5869V28.2188ZM79.1846 23.4434V19.5615H87.0801L90.4785 23.4434V25.3916H84.0039V23.4434H79.1846ZM94.9521 23.4434H101.441V39H94.9521V23.4434ZM94.9521 17.3789H101.441V21.5098H94.9521V17.3789ZM112.668 35.1182H116.945V39H110.09L106.193 35.1182V27.3252H104.904V23.4434H106.193V21.7588L112.668 19.5615V35.1182ZM113.693 27.3252V23.4434H117.18V27.3252H113.693Z" fill="#F05032"/>
</g>
<g filter="url(#filter1_ii_699_818)">
<path d="M10 10C10 7.23858 12.2386 5 15 5H55C57.7614 5 60 7.23858 60 10V50C60 52.7614 57.7614 55 55 55H15C12.2386 55 10 52.7614 10 50V10Z" fill="white"/>
</g>
<path d="M53.445 27.7464L36.2536 10.555C36.0184 10.319 35.739 10.1318 35.4313 10.004C35.1237 9.87625 34.7938 9.81049 34.4606 9.81049C34.1275 9.81049 33.7976 9.87625 33.4899 10.004C33.1823 10.1318 32.9028 10.319 32.6677 10.555L29.0972 14.1255L33.6253 18.6536C34.1593 18.4719 34.7336 18.4438 35.2827 18.5726C35.8318 18.7013 36.3338 18.9818 36.7313 19.3819C37.1288 19.7821 37.4059 20.2859 37.531 20.8358C37.6562 21.3858 37.6243 21.9599 37.4391 22.4926L41.7985 26.852C42.4501 26.6282 43.1587 26.6343 43.8063 26.8696C44.454 27.1048 45.0014 27.5548 45.3575 28.1446C45.7136 28.7345 45.8568 29.4286 45.7633 30.1112C45.6697 30.7938 45.3451 31.4238 44.8435 31.8961C44.3419 32.3685 43.6936 32.6546 43.0066 32.707C42.3195 32.7594 41.6353 32.5747 41.0679 32.1838C40.5005 31.793 40.0842 31.2195 39.8883 30.5589C39.6924 29.8983 39.7288 29.1906 39.9914 28.5536L35.9203 24.4825V35.1939C36.537 35.4994 37.0304 36.0071 37.3183 36.6322C37.6063 37.2573 37.6713 37.9622 37.5026 38.6295C37.334 39.2967 36.9418 39.8861 36.3914 40.2993C35.8411 40.7126 35.1657 40.9248 34.4779 40.9006C33.7901 40.8764 33.1313 40.6173 32.6113 40.1665C32.0913 39.7156 31.7415 39.1002 31.6201 38.4227C31.4987 37.7453 31.6131 37.0467 31.9442 36.4433C32.2753 35.8399 32.8031 35.3682 33.4397 35.1067V24.2969C33.0714 24.1457 32.7366 23.9233 32.4547 23.6422C32.1727 23.3611 31.9492 23.0271 31.7969 22.6593C31.6446 22.2914 31.5666 21.8971 31.5674 21.499C31.5682 21.1009 31.6477 20.7069 31.8014 20.3397L27.3436 15.879L15.555 27.6719C15.3188 27.907 15.1314 28.1866 15.0035 28.4944C14.8756 28.8022 14.8098 29.1322 14.8098 29.4655C14.8098 29.7988 14.8756 30.1289 15.0035 30.4367C15.1314 30.7445 15.3188 31.024 15.555 31.2592L32.7464 48.445C32.9816 48.681 33.261 48.8682 33.5687 48.996C33.8764 49.1237 34.2062 49.1895 34.5394 49.1895C34.8725 49.1895 35.2024 49.1237 35.5101 48.996C35.8178 48.8682 36.0972 48.681 36.3324 48.445L53.445 31.3281C53.6812 31.0929 53.8686 30.8134 53.9965 30.5056C54.1244 30.1978 54.1902 29.8678 54.1902 29.5344C54.1902 29.2011 54.1244 28.8711 53.9965 28.5633C53.8686 28.2555 53.6812 27.976 53.445 27.7408" fill="#DD4C35"/>
<path d="M29.0971 14.1255L33.6252 18.6536C34.1592 18.4719 34.7335 18.4438 35.2826 18.5726C35.8317 18.7014 36.3337 18.9818 36.7312 19.382C37.1287 19.7821 37.4058 20.2859 37.5309 20.8359C37.6561 21.3859 37.6242 21.9599 37.439 22.4927L41.7983 26.852C42.45 26.6282 43.1586 26.6344 43.8062 26.8696C44.4538 27.1048 45.0013 27.5548 45.3574 28.1447C45.7135 28.7345 45.8567 29.4286 45.7632 30.1112C45.6696 30.7938 45.345 31.4238 44.8434 31.8961C44.3418 32.3685 43.6935 32.6547 43.0065 32.707C42.3194 32.7594 41.6352 32.5747 41.0678 32.1839C40.5004 31.793 40.0841 31.2195 39.8882 30.5589C39.6923 29.8984 39.7287 29.1906 39.9913 28.5536L35.9202 24.4825V35.1939C36.5369 35.4995 37.0303 36.0071 37.3182 36.6322C37.6061 37.2574 37.6712 37.9623 37.5025 38.6295C37.3339 39.2968 36.9417 39.8861 36.3913 40.2994C35.841 40.7126 35.1656 40.9248 34.4778 40.9006C33.79 40.8765 33.1312 40.6174 32.6112 40.1665C32.0912 39.7156 31.7414 39.1002 31.62 38.4228C31.4986 37.7453 31.613 37.0467 31.9441 36.4433C32.2751 35.84 32.803 35.3682 33.4396 35.1067V24.2969C33.0713 24.1458 32.7365 23.9233 32.4546 23.6422C32.1726 23.3612 31.9491 23.0271 31.7968 22.6593C31.6445 22.2915 31.5665 21.8972 31.5673 21.4991C31.5681 21.1009 31.6476 20.7069 31.8013 20.3397L27.3435 15.8791" fill="white"/>
<defs>
<filter id="filter0_d_699_818" x="71.6846" y="17.3789" width="47.4951" height="23.6211" filterUnits="userSpaceOnUse" color-interpolation-filters="sRGB">
<feFlood flood-opacity="0" result="BackgroundImageFix"/>
<feColorMatrix in="SourceAlpha" type="matrix" values="0 0 0 0 0 0 0 0 0 0 0 0 0 0 0 0 0 0 127 0" result="hardAlpha"/>
<feOffset dx="1" dy="1"/>
<feGaussianBlur stdDeviation="0.5"/>
<feComposite in2="hardAlpha" operator="out"/>
<feColorMatrix type="matrix" values="0 0 0 0 0 0 0 0 0 0 0 0 0 0 0 0 0 0 0.5 0"/>
<feBlend mode="normal" in2="BackgroundImageFix" result="effect1_dropShadow_699_818"/>
<feBlend mode="normal" in="SourceGraphic" in2="effect1_dropShadow_699_818" result="shape"/>
</filter>
<filter id="filter1_ii_699_818" x="9" y="4" width="51" height="51" filterUnits="userSpaceOnUse" color-interpolation-filters="sRGB">
<feFlood flood-opacity="0" result="BackgroundImageFix"/>
<feBlend mode="normal" in="SourceGraphic" in2="BackgroundImageFix" result="shape"/>
<feColorMatrix in="SourceAlpha" type="matrix" values="0 0 0 0 0 0 0 0 0 0 0 0 0 0 0 0 0 0 127 0" result="hardAlpha"/>
<feOffset/>
<feGaussianBlur stdDeviation="0.5"/>
<feComposite in2="hardAlpha" operator="arithmetic" k2="-1" k3="1"/>
<feColorMatrix type="matrix" values="0 0 0 0 0.129412 0 0 0 0 0.0235294 0 0 0 0 0.0235294 0 0 0 0.5 0"/>
<feBlend mode="normal" in2="shape" result="effect1_innerShadow_699_818"/>
<feColorMatrix in="SourceAlpha" type="matrix" values="0 0 0 0 0 0 0 0 0 0 0 0 0 0 0 0 0 0 127 0" result="hardAlpha"/>
<feOffset dx="-1" dy="-1"/>
<feGaussianBlur stdDeviation="1"/>
<feComposite in2="hardAlpha" operator="arithmetic" k2="-1" k3="1"/>
<feColorMatrix type="matrix" values="0 0 0 0 0.129167 0 0 0 0 0.0236806 0 0 0 0 0.0236806 0 0 0 1 0"/>
<feBlend mode="normal" in2="effect1_innerShadow_699_818" result="effect2_innerShadow_699_818"/>
</filter>
<linearGradient id="paint0_linear_699_818" x1="112.5" y1="0" x2="112.5" y2="60" gradientUnits="userSpaceOnUse">
<stop stop-color="#FA6800"/>
<stop offset="1" stop-color="#1F324E"/>
</linearGradient>
</defs>
</svg>
