<svg width="225" height="60" viewBox="0 0 225 60" fill="none" xmlns="http://www.w3.org/2000/svg">
<rect width="225" height="60" rx="5" fill="white"/>
<g filter="url(#filter0_d_701_958)">
<path d="M78.1592 35.1182H83.7109V39H75.5664L71.6846 35.1182V23.4434L75.5664 19.5615H78.1592V35.1182ZM81.5869 28.2188H90.4785V39H84.7363V32.0713H81.5869V28.2188ZM79.1846 23.4434V19.5615H87.0801L90.4785 23.4434V25.3916H84.0039V23.4434H79.1846ZM94.9521 23.4434H101.441V39H94.9521V23.4434ZM94.9521 17.3789H101.441V21.5098H94.9521V17.3789ZM112.668 35.1182H116.945V39H110.09L106.193 35.1182V27.3252H104.904V23.4434H106.193V21.7588L112.668 19.5615V35.1182ZM113.693 27.3252V23.4434H117.18V27.3252H113.693Z" fill="#F05032"/>
</g>
<g filter="url(#filter1_ii_701_958)">
<path d="M10 10C10 7.23858 12.2386 5 15 5H55C57.7614 5 60 7.23858 60 10V50C60 52.7614 57.7614 55 55 55H15C12.2386 55 10 52.7614 10 50V10Z" fill="white"/>
</g>
<path d="M53.4448 27.7464L36.2534 10.555C36.0182 10.3191 35.7388 10.1318 35.4311 10.0041C35.1234 9.87631 34.7935 9.81055 34.4604 9.81055C34.1272 9.81055 33.7974 9.87631 33.4897 10.0041C33.182 10.1318 32.9026 10.3191 32.6674 10.555L29.097 14.1255L33.6251 18.6536C34.159 18.4719 34.7333 18.4439 35.2825 18.5726C35.8316 18.7014 36.3335 18.9819 36.731 19.382C37.1285 19.7822 37.4057 20.2859 37.5308 20.8359C37.6559 21.3859 37.6241 21.9599 37.4388 22.4927L41.7982 26.8521C42.4498 26.6282 43.1585 26.6344 43.8061 26.8696C44.4537 27.1048 45.0012 27.5549 45.3573 28.1447C45.7133 28.7346 45.8566 29.4286 45.763 30.1112C45.6695 30.7939 45.3449 31.4238 44.8433 31.8962C44.3416 32.3685 43.6933 32.6547 43.0063 32.7071C42.3193 32.7594 41.6351 32.5748 41.0677 32.1839C40.5003 31.793 40.084 31.2195 39.8881 30.559C39.6922 29.8984 39.7286 29.1906 39.9912 28.5536L35.9201 24.4825V35.1939C36.5368 35.4995 37.0302 36.0071 37.3181 36.6323C37.606 37.2574 37.6711 37.9623 37.5024 38.6295C37.3337 39.2968 36.9416 39.8861 36.3912 40.2994C35.8408 40.7126 35.1655 40.9248 34.4777 40.9007C33.7898 40.8765 33.1311 40.6174 32.6111 40.1665C32.0911 39.7157 31.7412 39.1002 31.6198 38.4228C31.4984 37.7453 31.6128 37.0467 31.9439 36.4434C32.275 35.84 32.8028 35.3683 33.4395 35.1068V24.2969C33.0712 24.1458 32.7364 23.9233 32.4544 23.6423C32.1725 23.3612 31.9489 23.0271 31.7967 22.6593C31.6444 22.2915 31.5664 21.8972 31.5672 21.4991C31.5679 21.101 31.6475 20.707 31.8012 20.3397L27.3434 15.8791L15.5548 27.6719C15.3186 27.9071 15.1312 28.1866 15.0033 28.4944C14.8754 28.8022 14.8096 29.1323 14.8096 29.4656C14.8096 29.7989 14.8754 30.1289 15.0033 30.4367C15.1312 30.7446 15.3186 31.0241 15.5548 31.2593L32.7462 48.445C32.9813 48.681 33.2608 48.8683 33.5685 48.996C33.8761 49.1238 34.206 49.1895 34.5391 49.1895C34.8723 49.1895 35.2022 49.1238 35.5098 48.996C35.8175 48.8683 36.097 48.681 36.3321 48.445L53.4448 31.3282C53.681 31.093 53.8684 30.8135 53.9963 30.5057C54.1241 30.1978 54.19 29.8678 54.19 29.5345C54.19 29.2012 54.1241 28.8711 53.9963 28.5633C53.8684 28.2555 53.681 27.976 53.4448 27.7408" fill="#DD4C35"/>
<path d="M29.0973 14.1255L33.6255 18.6536C34.1594 18.4719 34.7337 18.4438 35.2828 18.5726C35.832 18.7014 36.3339 18.9818 36.7314 19.382C37.1289 19.7821 37.406 20.2859 37.5312 20.8359C37.6563 21.3859 37.6245 21.9599 37.4392 22.4927L41.7986 26.852C42.4502 26.6282 43.1589 26.6344 43.8065 26.8696C44.4541 27.1048 45.0015 27.5548 45.3576 28.1447C45.7137 28.7345 45.8569 29.4286 45.7634 30.1112C45.6699 30.7938 45.3453 31.4238 44.8436 31.8961C44.342 32.3685 43.6937 32.6547 43.0067 32.707C42.3197 32.7594 41.6355 32.5747 41.0681 32.1839C40.5007 31.793 40.0844 31.2195 39.8885 30.5589C39.6926 29.8984 39.729 29.1906 39.9916 28.5536L35.9205 24.4825V35.1939C36.5372 35.4995 37.0306 36.0071 37.3185 36.6322C37.6064 37.2574 37.6714 37.9623 37.5028 38.6295C37.3341 39.2968 36.942 39.8861 36.3916 40.2994C35.8412 40.7126 35.1659 40.9248 34.478 40.9006C33.7902 40.8765 33.1314 40.6174 32.6114 40.1665C32.0914 39.7156 31.7416 39.1002 31.6202 38.4228C31.4988 37.7453 31.6132 37.0467 31.9443 36.4433C32.2754 35.84 32.8032 35.3682 33.4398 35.1067V24.2969C33.0715 24.1458 32.7368 23.9233 32.4548 23.6422C32.1729 23.3612 31.9493 23.0271 31.797 22.6593C31.6448 22.2915 31.5668 21.8972 31.5675 21.4991C31.5683 21.1009 31.6478 20.7069 31.8016 20.3397L27.3438 15.8791" fill="white"/>
<defs>
<filter id="filter0_d_701_958" x="71.6846" y="17.3789" width="47.4951" height="23.6211" filterUnits="userSpaceOnUse" color-interpolation-filters="sRGB">
<feFlood flood-opacity="0" result="BackgroundImageFix"/>
<feColorMatrix in="SourceAlpha" type="matrix" values="0 0 0 0 0 0 0 0 0 0 0 0 0 0 0 0 0 0 127 0" result="hardAlpha"/>
<feOffset dx="1" dy="1"/>
<feGaussianBlur stdDeviation="0.5"/>
<feComposite in2="hardAlpha" operator="out"/>
<feColorMatrix type="matrix" values="0 0 0 0 0 0 0 0 0 0 0 0 0 0 0 0 0 0 0.5 0"/>
<feBlend mode="normal" in2="BackgroundImageFix" result="effect1_dropShadow_701_958"/>
<feBlend mode="normal" in="SourceGraphic" in2="effect1_dropShadow_701_958" result="shape"/>
</filter>
<filter id="filter1_ii_701_958" x="9" y="4" width="51" height="51" filterUnits="userSpaceOnUse" color-interpolation-filters="sRGB">
<feFlood flood-opacity="0" result="BackgroundImageFix"/>
<feBlend mode="normal" in="SourceGraphic" in2="BackgroundImageFix" result="shape"/>
<feColorMatrix in="SourceAlpha" type="matrix" values="0 0 0 0 0 0 0 0 0 0 0 0 0 0 0 0 0 0 127 0" result="hardAlpha"/>
<feOffset/>
<feGaussianBlur stdDeviation="0.5"/>
<feComposite in2="hardAlpha" operator="arithmetic" k2="-1" k3="1"/>
<feColorMatrix type="matrix" values="0 0 0 0 0.129412 0 0 0 0 0.0235294 0 0 0 0 0.0235294 0 0 0 0.5 0"/>
<feBlend mode="normal" in2="shape" result="effect1_innerShadow_701_958"/>
<feColorMatrix in="SourceAlpha" type="matrix" values="0 0 0 0 0 0 0 0 0 0 0 0 0 0 0 0 0 0 127 0" result="hardAlpha"/>
<feOffset dx="-1" dy="-1"/>
<feGaussianBlur stdDeviation="1"/>
<feComposite in2="hardAlpha" operator="arithmetic" k2="-1" k3="1"/>
<feColorMatrix type="matrix" values="0 0 0 0 0.129167 0 0 0 0 0.0236806 0 0 0 0 0.0236806 0 0 0 1 0"/>
<feBlend mode="normal" in2="effect1_innerShadow_701_958" result="effect2_innerShadow_701_958"/>
</filter>
</defs>
</svg>
