<svg width="189" height="60" viewBox="0 0 189 60" fill="none" xmlns="http://www.w3.org/2000/svg">
<rect width="189" height="60" rx="5" fill="url(#paint0_linear_696_856)"/>
<rect width="189" height="60" rx="5" fill="#1F324E"/>
<g filter="url(#filter0_d_696_856)">
<path d="M78.1592 35.1182H83.7109V39H75.5664L71.6846 35.1182V23.4434L75.5664 19.5615H78.1592V35.1182ZM81.5869 28.2188H90.4785V39H84.7363V32.0713H81.5869V28.2188ZM79.1846 23.4434V19.5615H87.0801L90.4785 23.4434V25.3916H84.0039V23.4434H79.1846ZM93.7521 23.4434H100.241V39H93.7521V23.4434ZM93.7521 17.3789H100.241V21.5098H93.7521V17.3789ZM110.268 35.1182H114.545V39H107.69L103.793 35.1182V27.3252H102.504V23.4434H103.793V21.7588L110.268 19.5615V35.1182ZM111.293 27.3252V23.4434H114.78V27.3252H111.293ZM129.787 19.5615H136.32V39H129.831V31.1045H125.026V27.208H129.787V19.5615ZM124.001 39H117.526V19.5615H124.001V39ZM156.571 23.4434V39H150.096V23.4434H156.571ZM146.185 35.1182H149.071V37.0518L147.196 39H143.607L139.711 35.1182V23.4434H146.185V35.1182ZM166.393 17.5107V39H159.918V17.5107H166.393ZM170.318 27.3252H167.418V25.3623L169.322 23.4434H172.867L176.764 27.3252V35.1182L172.867 39H167.418V35.3672H170.318V27.3252Z" fill="#181717"/>
</g>
<g filter="url(#filter1_ii_696_856)">
<circle cx="35" cy="30" r="25" fill="white"/>
</g>
<path d="M53.9815 18.7565C51.9695 15.3092 49.2403 12.5799 45.7933 10.5681C42.3458 8.55623 38.5821 7.55054 34.4996 7.55054C30.4177 7.55054 26.6528 8.55654 23.206 10.5681C19.7586 12.5798 17.0296 15.3092 15.0176 18.7565C13.0059 22.2037 12 25.9681 12 30.0496C12 34.9523 13.4304 39.361 16.2919 43.2768C19.1531 47.1928 22.8494 49.9026 27.3804 51.4063C27.9078 51.5042 28.2982 51.4354 28.5521 51.2015C28.8061 50.9674 28.9329 50.6741 28.9329 50.323C28.9329 50.2644 28.9279 49.7373 28.9181 48.741C28.9081 47.7448 28.9033 46.8756 28.9033 46.1341L28.2295 46.2506C27.7999 46.3293 27.2579 46.3627 26.6035 46.3532C25.9495 46.3441 25.2705 46.2756 24.5675 46.1481C23.8642 46.0218 23.2101 45.7289 22.6045 45.2699C21.9993 44.8109 21.5697 44.2101 21.3158 43.4684L21.0228 42.7943C20.8275 42.3455 20.5201 41.8469 20.1001 41.3004C19.6801 40.7533 19.2554 40.3825 18.8258 40.1872L18.6207 40.0404C18.484 39.9428 18.3572 39.8251 18.2399 39.6886C18.1227 39.552 18.035 39.4153 17.9764 39.2784C17.9177 39.1414 17.9663 39.0291 18.1228 38.9409C18.2793 38.8528 18.5621 38.81 18.9724 38.81L19.5581 38.8975C19.9488 38.9758 20.432 39.2097 21.0083 39.6005C21.5844 39.9911 22.0579 40.4988 22.4291 41.1235C22.8785 41.9244 23.42 42.5348 24.0551 42.9548C24.6896 43.3748 25.3294 43.5844 25.9738 43.5844C26.6182 43.5844 27.1747 43.5355 27.6437 43.4384C28.1121 43.3407 28.5516 43.1939 28.9619 42.9987C29.1377 41.6896 29.6163 40.6839 30.3972 39.9809C29.2841 39.8639 28.2834 39.6877 27.3944 39.4535C26.506 39.2189 25.588 38.8382 24.6409 38.3104C23.6933 37.7833 22.9071 37.1287 22.2824 36.3478C21.6574 35.5666 21.1446 34.5409 20.7445 33.2717C20.3442 32.002 20.144 30.5373 20.144 28.8772C20.144 26.5136 20.9157 24.5022 22.4586 22.842C21.7358 21.0649 21.8041 19.0728 22.6636 16.8659C23.23 16.6899 24.0699 16.822 25.1831 17.2612C26.2964 17.7007 27.1115 18.0772 27.6293 18.3894C28.1471 18.7014 28.5619 18.9658 28.8745 19.1803C30.6912 18.6727 32.566 18.4188 34.4994 18.4188C36.4328 18.4188 38.3081 18.6727 40.1249 19.1803L41.2381 18.4775C41.9994 18.0086 42.8984 17.5788 43.9329 17.1882C44.968 16.7978 45.7596 16.6902 46.3067 16.8662C47.1852 19.0733 47.2635 21.0652 46.5405 22.8423C48.0834 24.5025 48.8553 26.5144 48.8553 28.8775C48.8553 30.5376 48.6544 32.0069 48.2548 33.2863C47.8546 34.566 47.3373 35.5907 46.7028 36.3625C46.0675 37.1343 45.2764 37.7837 44.3293 38.3107C43.382 38.8381 42.4636 39.2188 41.5752 39.4534C40.6864 39.6879 39.6856 39.8642 38.5725 39.9814C39.5877 40.86 40.0954 42.2467 40.0954 44.1412V50.3221C40.0954 50.6733 40.2175 50.9664 40.462 51.2007C40.7061 51.4346 41.0916 51.5034 41.619 51.4054C46.1506 49.9018 49.8469 47.192 52.708 43.2759C55.5688 39.3602 56.9997 34.9515 56.9997 30.0487C56.9987 25.9678 55.9923 22.2037 53.9815 18.7565Z" fill="black"/>
<defs>
<filter id="filter0_d_696_856" x="71.6846" y="17.3789" width="107.079" height="23.6211" filterUnits="userSpaceOnUse" color-interpolation-filters="sRGB">
<feFlood flood-opacity="0" result="BackgroundImageFix"/>
<feColorMatrix in="SourceAlpha" type="matrix" values="0 0 0 0 0 0 0 0 0 0 0 0 0 0 0 0 0 0 127 0" result="hardAlpha"/>
<feOffset dx="1" dy="1"/>
<feGaussianBlur stdDeviation="0.5"/>
<feComposite in2="hardAlpha" operator="out"/>
<feColorMatrix type="matrix" values="0 0 0 0 0 0 0 0 0 0 0 0 0 0 0 0 0 0 1 0"/>
<feBlend mode="normal" in2="BackgroundImageFix" result="effect1_dropShadow_696_856"/>
<feBlend mode="normal" in="SourceGraphic" in2="effect1_dropShadow_696_856" result="shape"/>
</filter>
<filter id="filter1_ii_696_856" x="9" y="4" width="51" height="51" filterUnits="userSpaceOnUse" color-interpolation-filters="sRGB">
<feFlood flood-opacity="0" result="BackgroundImageFix"/>
<feBlend mode="normal" in="SourceGraphic" in2="BackgroundImageFix" result="shape"/>
<feColorMatrix in="SourceAlpha" type="matrix" values="0 0 0 0 0 0 0 0 0 0 0 0 0 0 0 0 0 0 127 0" result="hardAlpha"/>
<feOffset/>
<feGaussianBlur stdDeviation="0.5"/>
<feComposite in2="hardAlpha" operator="arithmetic" k2="-1" k3="1"/>
<feColorMatrix type="matrix" values="0 0 0 0 0.129412 0 0 0 0 0.0235294 0 0 0 0 0.0235294 0 0 0 0.5 0"/>
<feBlend mode="normal" in2="shape" result="effect1_innerShadow_696_856"/>
<feColorMatrix in="SourceAlpha" type="matrix" values="0 0 0 0 0 0 0 0 0 0 0 0 0 0 0 0 0 0 127 0" result="hardAlpha"/>
<feOffset dx="-1" dy="-1"/>
<feGaussianBlur stdDeviation="1"/>
<feComposite in2="hardAlpha" operator="arithmetic" k2="-1" k3="1"/>
<feColorMatrix type="matrix" values="0 0 0 0 0.129167 0 0 0 0 0.0236806 0 0 0 0 0.0236806 0 0 0 1 0"/>
<feBlend mode="normal" in2="effect1_innerShadow_696_856" result="effect2_innerShadow_696_856"/>
</filter>
<linearGradient id="paint0_linear_696_856" x1="94.5" y1="0" x2="94.5" y2="60" gradientUnits="userSpaceOnUse">
<stop stop-color="#FA6800"/>
<stop offset="1" stop-color="#1F324E"/>
</linearGradient>
</defs>
</svg>
