<svg width="262" height="60" viewBox="0 0 262 60" fill="none" xmlns="http://www.w3.org/2000/svg">
<rect width="262" height="60" rx="5" fill="white"/>
<g filter="url(#filter0_d_701_1031)">
<path d="M73.1201 19.5615H88.5303V35.1182L84.6484 39H82.0557V23.7949H73.1201V19.5615ZM77.4854 35.1182H81.0303V39H74.6582L70.7617 35.1182V30.8555H77.4854V35.1182ZM102.146 39V27.3252H92.9318V25.3916L94.8801 23.4434H104.592L108.474 27.3252V39H102.146ZM101.12 29.9473V32.6426H97.7805V35.3672H101.12V37.0811L99.1867 39H94.2355L91.6281 36.4365V32.54L94.2355 29.9473H101.12ZM109.975 23.4434H116.406L121.943 39H115.79L109.975 23.4434ZM122.602 38.1357L119.702 29.9033L121.796 23.4434H127.846L122.602 38.1357ZM139.718 39V27.3252H130.504V25.3916L132.453 23.4434H142.165L146.046 27.3252V39H139.718ZM138.693 29.9473V32.6426H135.353V35.3672H138.693V37.0811L136.759 39H131.808L129.201 36.4365V32.54L131.808 29.9473H138.693ZM161.478 39V31.7197H153.07L149.174 27.8232V23.4434L153.07 19.5615H155.267V26.4609H164.203L167.968 30.3574V35.1182L164.086 39H161.478ZM156.293 23.0625V19.5615H164.071L167.44 22.9453V25.0107H161.478V23.0625H156.293ZM149.174 33.1699H155.648V35.4844H160.453V39H152.44L149.174 35.1182V33.1699ZM177.569 39H174.977L171.095 35.1182V27.3252L174.977 23.4434H177.569V39ZM178.595 27.3252V23.4434H184.059L187.94 27.3252V29.6543H181.466V27.3252H178.595ZM178.595 39V35.3672H181.466V33.4189H187.94V35.1182L184.059 39H178.595ZM201.19 27.3252H198.436V25.626L200.604 23.4434H204.529L207.679 27.0762V31.1045H201.19V27.3252ZM190.921 39V23.4434H197.396V39H190.921ZM209.986 23.4434H216.475V39H209.986V23.4434ZM209.986 17.3789H216.475V21.5098H209.986V17.3789ZM219.851 44.1855V23.4434H226.326V44.1855H219.851ZM230.208 27.3252H227.351V25.3623L229.255 23.4434H232.8L236.697 27.3252V35.1182L232.8 39H227.351V35.3672H230.208V27.3252ZM246.577 35.1182H250.854V39H243.999L240.102 35.1182V27.3252H238.813V23.4434H240.102V21.7588L246.577 19.5615V35.1182ZM247.602 27.3252V23.4434H251.089V27.3252H247.602Z" fill="#F7DF1E"/>
</g>
<g filter="url(#filter1_ii_701_1031)">
<path d="M10 10C10 7.23858 12.2386 5 15 5H55C57.7614 5 60 7.23858 60 10V50C60 52.7614 57.7614 55 55 55H15C12.2386 55 10 52.7614 10 50V10Z" fill="white"/>
</g>
<path d="M55.9877 9H14.0123C14.0055 9 14 9.00551 14 9.0123V50.9877C14 50.9945 14.0055 51 14.0123 51H55.9877C55.9945 51 56 50.9945 56 50.9877V9.0123C56 9.00551 55.9945 9 55.9877 9Z" fill="#F7DF1E"/>
<path d="M40.5781 39.3516C41.3984 40.7461 42.5469 41.7305 44.4336 41.7305C46.0742 41.7305 47.1406 40.9102 47.1406 39.7617C47.1406 38.4492 46.0742 37.957 44.2695 37.1367L43.2852 36.7266C40.4141 35.4961 38.5273 34.0195 38.5273 30.8203C38.5273 27.8672 40.7422 25.5703 44.2695 25.5703C46.8125 25.5703 48.6172 26.4727 49.8477 28.7695L46.8125 30.7383C46.1562 29.5078 45.418 29.0156 44.2695 29.0156C43.1211 29.0156 42.3828 29.7539 42.3828 30.7383C42.3828 31.8867 43.1211 32.3789 44.8438 33.1172L45.8281 33.5273C49.1914 35.0039 51.0781 36.3984 51.0781 39.7617C51.0781 43.2891 48.2891 45.2578 44.5156 45.2578C40.8242 45.2578 38.4453 43.5352 37.2969 41.2383L40.5781 39.3516ZM26.6328 39.6797C27.2891 40.7461 27.7812 41.7305 29.1758 41.7305C30.4883 41.7305 31.3086 41.2383 31.3086 39.2695V25.6523H35.2461V39.1055C35.2461 43.207 32.8672 45.0117 29.3398 45.0117C26.1406 45.0117 24.3359 43.3711 23.4336 41.4023L26.6328 39.6797Z" fill="black"/>
<defs>
<filter id="filter0_d_701_1031" x="70.7617" y="17.3789" width="182.327" height="28.8066" filterUnits="userSpaceOnUse" color-interpolation-filters="sRGB">
<feFlood flood-opacity="0" result="BackgroundImageFix"/>
<feColorMatrix in="SourceAlpha" type="matrix" values="0 0 0 0 0 0 0 0 0 0 0 0 0 0 0 0 0 0 127 0" result="hardAlpha"/>
<feOffset dx="1" dy="1"/>
<feGaussianBlur stdDeviation="0.5"/>
<feComposite in2="hardAlpha" operator="out"/>
<feColorMatrix type="matrix" values="0 0 0 0 0 0 0 0 0 0 0 0 0 0 0 0 0 0 1 0"/>
<feBlend mode="normal" in2="BackgroundImageFix" result="effect1_dropShadow_701_1031"/>
<feBlend mode="normal" in="SourceGraphic" in2="effect1_dropShadow_701_1031" result="shape"/>
</filter>
<filter id="filter1_ii_701_1031" x="9" y="4" width="51" height="51" filterUnits="userSpaceOnUse" color-interpolation-filters="sRGB">
<feFlood flood-opacity="0" result="BackgroundImageFix"/>
<feBlend mode="normal" in="SourceGraphic" in2="BackgroundImageFix" result="shape"/>
<feColorMatrix in="SourceAlpha" type="matrix" values="0 0 0 0 0 0 0 0 0 0 0 0 0 0 0 0 0 0 127 0" result="hardAlpha"/>
<feOffset/>
<feGaussianBlur stdDeviation="0.5"/>
<feComposite in2="hardAlpha" operator="arithmetic" k2="-1" k3="1"/>
<feColorMatrix type="matrix" values="0 0 0 0 0.129412 0 0 0 0 0.0235294 0 0 0 0 0.0235294 0 0 0 0.5 0"/>
<feBlend mode="normal" in2="shape" result="effect1_innerShadow_701_1031"/>
<feColorMatrix in="SourceAlpha" type="matrix" values="0 0 0 0 0 0 0 0 0 0 0 0 0 0 0 0 0 0 127 0" result="hardAlpha"/>
<feOffset dx="-1" dy="-1"/>
<feGaussianBlur stdDeviation="1"/>
<feComposite in2="hardAlpha" operator="arithmetic" k2="-1" k3="1"/>
<feColorMatrix type="matrix" values="0 0 0 0 0.129167 0 0 0 0 0.0236806 0 0 0 0 0.0236806 0 0 0 1 0"/>
<feBlend mode="normal" in2="effect1_innerShadow_701_1031" result="effect2_innerShadow_701_1031"/>
</filter>
</defs>
</svg>
