<svg width="225" height="60" viewBox="0 0 225 60" fill="none" xmlns="http://www.w3.org/2000/svg">
<rect width="225" height="60" rx="5" fill="white"/>
<g filter="url(#filter0_d_701_1014)">
<path d="M90.376 39H83.4912L71.7139 19.5615H78.5547L90.376 39ZM71.7139 39V21.4072L77.3535 30.6504V39H71.7139ZM90.376 19.5615V37.1543L84.7363 27.8672V19.5615H90.376ZM100.256 39H97.6633L93.7814 35.1182V27.3252L97.6633 23.4434H100.256V39ZM101.281 32.7598V30.0498H104.695V27.3252H101.281V23.4434H106.775L110.656 27.3252V32.7598H101.281ZM101.281 39V35.3672H109.983V37.0518L108.049 39H101.281ZM118.735 23.4434L129.091 39H122.368L111.996 23.4434H118.735ZM121.269 25.5967L122.368 23.4434H129.091L124.609 30.6211L121.269 25.5967ZM118.735 39H111.996L116.318 31.5879L119.789 36.8174L118.735 39ZM137.375 35.1182H141.652V39H134.796L130.9 35.1182V27.3252H129.611V23.4434H130.9V21.7588L137.375 19.5615V35.1182ZM138.4 27.3252V23.4434H141.886V27.3252H138.4ZM154.103 19.5615H169.513V35.1182L165.631 39H163.038V23.7949H154.103V19.5615ZM158.468 35.1182H162.013V39H155.641L151.744 35.1182V30.8555H158.468V35.1182ZM185.076 39V31.7197H176.668L172.772 27.8232V23.4434L176.668 19.5615H178.865V26.4609H187.801L191.566 30.3574V35.1182L187.684 39H185.076ZM179.891 23.0625V19.5615H187.669L191.038 22.9453V25.0107H185.076V23.0625H179.891ZM172.772 33.1699H179.246V35.4844H184.051V39H176.038L172.772 35.1182V33.1699Z" fill="black"/>
</g>
<g filter="url(#filter1_ii_701_1014)">
<circle cx="35" cy="30" r="25" fill="white"/>
</g>
<g clip-path="url(#clip0_701_1014)">
<rect x="12.2998" y="7.5" width="45" height="45" rx="22.5" fill="white"/>
<path d="M33.3275 7.53517C33.2309 7.54396 32.9233 7.57472 32.6465 7.59669C26.2618 8.17231 20.2815 11.6173 16.4937 16.9122C14.3846 19.8562 13.0356 23.1958 12.5259 26.733C12.3457 27.9677 12.3237 28.3325 12.3237 30.0066C12.3237 31.6808 12.3457 32.0455 12.5259 33.2802C13.7474 41.7213 19.7542 48.8134 27.9008 51.441C29.3597 51.9112 30.8976 52.232 32.6465 52.4253C33.3275 52.5 36.2716 52.5 36.9527 52.4253C39.9714 52.0914 42.5288 51.3444 45.051 50.0569C45.4377 49.8592 45.5124 49.8064 45.4597 49.7625C45.4245 49.7361 43.7767 47.5259 41.7994 44.8543L38.205 39.9988L33.701 33.3329C31.2228 29.6683 29.1839 26.6715 29.1663 26.6715C29.1488 26.6671 29.1312 29.6287 29.1224 33.2451C29.1092 39.577 29.1048 39.8318 29.0257 39.9812C28.9115 40.1965 28.8236 40.2844 28.639 40.3811C28.4984 40.4514 28.3754 40.4646 27.7119 40.4646H26.9517L26.7496 40.3371C26.6177 40.2537 26.5211 40.1438 26.4552 40.0164L26.3629 39.8186L26.3717 31.0085L26.3849 22.1939L26.5211 22.0225C26.5914 21.9302 26.7408 21.8116 26.8462 21.7545C27.0264 21.6666 27.0967 21.6578 27.8569 21.6578C28.7533 21.6578 28.9027 21.693 29.1356 21.9478C29.2015 22.0181 31.6402 25.6916 34.5579 30.1165C37.4756 34.5413 41.4654 40.5832 43.4252 43.5492L46.9844 48.9408L47.1646 48.8222C48.7596 47.7851 50.447 46.3087 51.7828 44.7708C54.6258 41.506 56.4581 37.5249 57.0733 33.2802C57.2534 32.0455 57.2754 31.6808 57.2754 30.0066C57.2754 28.3325 57.2534 27.9677 57.0733 26.733C55.8517 18.2919 49.845 11.1999 41.6983 8.57218C40.2614 8.1064 38.7323 7.78563 37.0186 7.59229C36.5968 7.54835 33.6923 7.50002 33.3275 7.53517V7.53517ZM42.5288 21.1305C42.7397 21.236 42.9111 21.4381 42.9726 21.649C43.0078 21.7633 43.0165 24.2064 43.0078 29.7122L42.9946 37.6128L41.6016 35.4773L40.2043 33.3417V27.5986C40.2043 23.8856 40.2219 21.7984 40.2483 21.6974C40.3186 21.4513 40.4724 21.258 40.6833 21.1437C40.8634 21.0514 40.9293 21.0426 41.6192 21.0426C42.2695 21.0426 42.3838 21.0514 42.5288 21.1305V21.1305Z" fill="black"/>
<path d="M33.3275 7.53517C33.2309 7.54396 32.9233 7.57472 32.6465 7.59669C26.2618 8.17231 20.2815 11.6173 16.4937 16.9122C14.3846 19.8562 13.0356 23.1958 12.5259 26.733C12.3457 27.9677 12.3237 28.3325 12.3237 30.0066C12.3237 31.6808 12.3457 32.0455 12.5259 33.2802C13.7474 41.7213 19.7542 48.8134 27.9008 51.441C29.3597 51.9112 30.8976 52.232 32.6465 52.4253C33.3275 52.5 36.2716 52.5 36.9527 52.4253C39.9714 52.0914 42.5288 51.3444 45.051 50.0569C45.4377 49.8592 45.5124 49.8064 45.4597 49.7625C45.4245 49.7361 43.7767 47.5259 41.7994 44.8543L38.205 39.9988L33.701 33.3329C31.2228 29.6683 29.1839 26.6715 29.1663 26.6715C29.1488 26.6671 29.1312 29.6287 29.1224 33.2451C29.1092 39.577 29.1048 39.8318 29.0257 39.9812C28.9115 40.1965 28.8236 40.2844 28.639 40.3811C28.4984 40.4514 28.3754 40.4646 27.7119 40.4646H26.9517L26.7496 40.3371C26.6177 40.2537 26.5211 40.1438 26.4552 40.0164L26.3629 39.8186L26.3717 31.0085L26.3849 22.1939L26.5211 22.0225C26.5914 21.9302 26.7408 21.8116 26.8462 21.7545C27.0264 21.6666 27.0967 21.6578 27.8569 21.6578C28.7533 21.6578 28.9027 21.693 29.1356 21.9478C29.2015 22.0181 31.6402 25.6916 34.5579 30.1165C37.4756 34.5413 41.4654 40.5832 43.4252 43.5492L46.9844 48.9408L47.1646 48.8222C48.7596 47.7851 50.447 46.3087 51.7828 44.7708C54.6258 41.506 56.4581 37.5249 57.0733 33.2802C57.2534 32.0455 57.2754 31.6808 57.2754 30.0066C57.2754 28.3325 57.2534 27.9677 57.0733 26.733C55.8517 18.2919 49.845 11.1999 41.6983 8.57218C40.2614 8.1064 38.7323 7.78563 37.0186 7.59229C36.5968 7.54835 33.6923 7.50002 33.3275 7.53517V7.53517ZM42.5288 21.1305C42.7397 21.236 42.9111 21.4381 42.9726 21.649C43.0078 21.7633 43.0165 24.2064 43.0078 29.7122L42.9946 37.6128L41.6016 35.4773L40.2043 33.3417V27.5986C40.2043 23.8856 40.2219 21.7984 40.2483 21.6974C40.3186 21.4513 40.4724 21.258 40.6833 21.1437C40.8634 21.0514 40.9293 21.0426 41.6192 21.0426C42.2695 21.0426 42.3838 21.0514 42.5288 21.1305V21.1305Z" fill="black" fill-opacity="0.2"/>
<path d="M46.7649 49.0375C46.6111 49.1341 46.5627 49.2 46.699 49.1253C46.7956 49.0682 46.9538 48.9496 46.9274 48.9452C46.9143 48.9452 46.8396 48.9891 46.7649 49.0375ZM46.4617 49.2352C46.3826 49.2967 46.3826 49.3011 46.4792 49.2528C46.532 49.2264 46.5759 49.1957 46.5759 49.1869C46.5759 49.1517 46.5539 49.1605 46.4617 49.2352ZM46.242 49.367C46.1629 49.4285 46.1629 49.4329 46.2595 49.3846C46.3123 49.3582 46.3562 49.3275 46.3562 49.3187C46.3562 49.2835 46.3342 49.2923 46.242 49.367ZM46.0223 49.4989C45.9432 49.5604 45.9432 49.5648 46.0398 49.5164C46.0926 49.4901 46.1365 49.4593 46.1365 49.4505C46.1365 49.4154 46.1145 49.4242 46.0223 49.4989ZM45.6883 49.6746C45.5213 49.7625 45.5301 49.7977 45.6971 49.7142C45.7718 49.6746 45.8289 49.6351 45.8289 49.6263C45.8289 49.5955 45.8245 49.5999 45.6883 49.6746Z" fill="black"/>
</g>
<defs>
<filter id="filter0_d_701_1014" x="71.7139" y="19.5615" width="121.852" height="21.4385" filterUnits="userSpaceOnUse" color-interpolation-filters="sRGB">
<feFlood flood-opacity="0" result="BackgroundImageFix"/>
<feColorMatrix in="SourceAlpha" type="matrix" values="0 0 0 0 0 0 0 0 0 0 0 0 0 0 0 0 0 0 127 0" result="hardAlpha"/>
<feOffset dx="1" dy="1"/>
<feGaussianBlur stdDeviation="0.5"/>
<feComposite in2="hardAlpha" operator="out"/>
<feColorMatrix type="matrix" values="0 0 0 0 0 0 0 0 0 0 0 0 0 0 0 0 0 0 1 0"/>
<feBlend mode="normal" in2="BackgroundImageFix" result="effect1_dropShadow_701_1014"/>
<feBlend mode="normal" in="SourceGraphic" in2="effect1_dropShadow_701_1014" result="shape"/>
</filter>
<filter id="filter1_ii_701_1014" x="9" y="4" width="51" height="51" filterUnits="userSpaceOnUse" color-interpolation-filters="sRGB">
<feFlood flood-opacity="0" result="BackgroundImageFix"/>
<feBlend mode="normal" in="SourceGraphic" in2="BackgroundImageFix" result="shape"/>
<feColorMatrix in="SourceAlpha" type="matrix" values="0 0 0 0 0 0 0 0 0 0 0 0 0 0 0 0 0 0 127 0" result="hardAlpha"/>
<feOffset/>
<feGaussianBlur stdDeviation="0.5"/>
<feComposite in2="hardAlpha" operator="arithmetic" k2="-1" k3="1"/>
<feColorMatrix type="matrix" values="0 0 0 0 0.129412 0 0 0 0 0.0235294 0 0 0 0 0.0235294 0 0 0 0.5 0"/>
<feBlend mode="normal" in2="shape" result="effect1_innerShadow_701_1014"/>
<feColorMatrix in="SourceAlpha" type="matrix" values="0 0 0 0 0 0 0 0 0 0 0 0 0 0 0 0 0 0 127 0" result="hardAlpha"/>
<feOffset dx="-1" dy="-1"/>
<feGaussianBlur stdDeviation="1"/>
<feComposite in2="hardAlpha" operator="arithmetic" k2="-1" k3="1"/>
<feColorMatrix type="matrix" values="0 0 0 0 0.129167 0 0 0 0 0.0236806 0 0 0 0 0.0236806 0 0 0 1 0"/>
<feBlend mode="normal" in2="effect1_innerShadow_701_1014" result="effect2_innerShadow_701_1014"/>
</filter>
<clipPath id="clip0_701_1014">
<rect x="12.2998" y="7.5" width="45" height="45" rx="22.5" fill="white"/>
</clipPath>
</defs>
</svg>
