<svg width="204" height="60" viewBox="0 0 204 60" fill="none" xmlns="http://www.w3.org/2000/svg">
<rect width="204" height="60" rx="5" fill="url(#paint0_linear_678_819)"/>
<rect width="204" height="60" rx="5" fill="#1F324E"/>
<g filter="url(#filter0_d_678_819)">
<path d="M90.376 39H83.4912L71.7139 19.5615H78.5547L90.376 39ZM71.7139 39V21.4072L77.3535 30.6504V39H71.7139ZM90.376 19.5615V37.1543L84.7363 27.8672V19.5615H90.376ZM100.256 39H97.6633L93.7814 35.1182V27.3252L97.6633 23.4434H100.256V39ZM101.281 32.7598V30.0498H104.695V27.3252H101.281V23.4434H106.775L110.656 27.3252V32.7598H101.281ZM101.281 39V35.3672H109.983V37.0518L108.049 39H101.281ZM118.735 23.4434L129.091 39H122.368L111.996 23.4434H118.735ZM121.269 25.5967L122.368 23.4434H129.091L124.609 30.6211L121.269 25.5967ZM118.735 39H111.996L116.318 31.5879L119.789 36.8174L118.735 39ZM137.375 35.1182H141.652V39H134.796L130.9 35.1182V27.3252H129.611V23.4434H130.9V21.7588L137.375 19.5615V35.1182ZM138.4 27.3252V23.4434H141.886V27.3252H138.4ZM154.103 19.5615H169.513V35.1182L165.631 39H163.038V23.7949H154.103V19.5615ZM158.468 35.1182H162.013V39H155.641L151.744 35.1182V30.8555H158.468V35.1182ZM185.076 39V31.7197H176.668L172.772 27.8232V23.4434L176.668 19.5615H178.865V26.4609H187.801L191.566 30.3574V35.1182L187.684 39H185.076ZM179.891 23.0625V19.5615H187.669L191.038 22.9453V25.0107H185.076V23.0625H179.891ZM172.772 33.1699H179.246V35.4844H184.051V39H176.038L172.772 35.1182V33.1699Z" fill="black"/>
</g>
<g filter="url(#filter1_ii_678_819)">
<circle cx="35" cy="30" r="25" fill="white"/>
</g>
<g clip-path="url(#clip0_678_819)">
<rect x="12.3" y="7.5" width="45" height="45" rx="22.5" fill="white"/>
<path d="M33.328 7.53514C33.2314 7.54393 32.9238 7.57469 32.6469 7.59666C26.2623 8.17228 20.2819 11.6173 16.4942 16.9122C14.3851 19.8562 13.0361 23.1957 12.5263 26.733C12.3462 27.9677 12.3242 28.3324 12.3242 30.0066C12.3242 31.6807 12.3462 32.0454 12.5263 33.2802C13.7479 41.7213 19.7546 48.8133 27.9013 51.441C29.3602 51.9112 30.8981 52.232 32.6469 52.4253C33.328 52.5 36.2721 52.5 36.9532 52.4253C39.9719 52.0913 42.5293 51.3443 45.0515 50.0569C45.4382 49.8591 45.5129 49.8064 45.4602 49.7625C45.425 49.7361 43.7772 47.5259 41.7999 44.8543L38.2055 39.9988L33.7015 33.3329C31.2233 29.6682 29.1844 26.6715 29.1668 26.6715C29.1492 26.6671 29.1317 29.6287 29.1229 33.245C29.1097 39.5769 29.1053 39.8318 29.0262 39.9812C28.912 40.1965 28.8241 40.2844 28.6395 40.3811C28.4989 40.4514 28.3759 40.4645 27.7124 40.4645H26.9522L26.7501 40.3371C26.6182 40.2536 26.5216 40.1438 26.4557 40.0163L26.3634 39.8186L26.3722 31.0084L26.3853 22.1939L26.5216 22.0225C26.5919 21.9302 26.7413 21.8116 26.8467 21.7545C27.0269 21.6666 27.0972 21.6578 27.8574 21.6578C28.7538 21.6578 28.9032 21.6929 29.1361 21.9478C29.202 22.0181 31.6407 25.6916 34.5584 30.1164C37.4761 34.5413 41.4659 40.5832 43.4257 43.5492L46.9849 48.9408L47.1651 48.8221C48.7601 47.7851 50.4475 46.3087 51.7833 44.7708C54.6263 41.5059 56.4586 37.5249 57.0738 33.2802C57.2539 32.0454 57.2759 31.6807 57.2759 30.0066C57.2759 28.3324 57.2539 27.9677 57.0738 26.733C55.8522 18.2919 49.8455 11.1998 41.6988 8.57215C40.2619 8.10637 38.7328 7.7856 37.0191 7.59226C36.5972 7.54832 33.6927 7.49999 33.328 7.53514V7.53514ZM42.5293 21.1305C42.7402 21.236 42.9116 21.4381 42.9731 21.649C43.0082 21.7632 43.017 24.2064 43.0082 29.7122L42.9951 37.6128L41.6021 35.4772L40.2048 33.3417V27.5986C40.2048 23.8856 40.2224 21.7984 40.2487 21.6973C40.3191 21.4513 40.4728 21.2579 40.6838 21.1437C40.8639 21.0514 40.9298 21.0426 41.6197 21.0426C42.27 21.0426 42.3843 21.0514 42.5293 21.1305V21.1305Z" fill="black"/>
<path d="M33.328 7.53514C33.2314 7.54393 32.9238 7.57469 32.6469 7.59666C26.2623 8.17228 20.2819 11.6173 16.4942 16.9122C14.3851 19.8562 13.0361 23.1957 12.5263 26.733C12.3462 27.9677 12.3242 28.3324 12.3242 30.0066C12.3242 31.6807 12.3462 32.0454 12.5263 33.2802C13.7479 41.7213 19.7546 48.8133 27.9013 51.441C29.3602 51.9112 30.8981 52.232 32.6469 52.4253C33.328 52.5 36.2721 52.5 36.9532 52.4253C39.9719 52.0913 42.5293 51.3443 45.0515 50.0569C45.4382 49.8591 45.5129 49.8064 45.4602 49.7625C45.425 49.7361 43.7772 47.5259 41.7999 44.8543L38.2055 39.9988L33.7015 33.3329C31.2233 29.6682 29.1844 26.6715 29.1668 26.6715C29.1492 26.6671 29.1317 29.6287 29.1229 33.245C29.1097 39.5769 29.1053 39.8318 29.0262 39.9812C28.912 40.1965 28.8241 40.2844 28.6395 40.3811C28.4989 40.4514 28.3759 40.4645 27.7124 40.4645H26.9522L26.7501 40.3371C26.6182 40.2536 26.5216 40.1438 26.4557 40.0163L26.3634 39.8186L26.3722 31.0084L26.3853 22.1939L26.5216 22.0225C26.5919 21.9302 26.7413 21.8116 26.8467 21.7545C27.0269 21.6666 27.0972 21.6578 27.8574 21.6578C28.7538 21.6578 28.9032 21.6929 29.1361 21.9478C29.202 22.0181 31.6407 25.6916 34.5584 30.1164C37.4761 34.5413 41.4659 40.5832 43.4257 43.5492L46.9849 48.9408L47.1651 48.8221C48.7601 47.7851 50.4475 46.3087 51.7833 44.7708C54.6263 41.5059 56.4586 37.5249 57.0738 33.2802C57.2539 32.0454 57.2759 31.6807 57.2759 30.0066C57.2759 28.3324 57.2539 27.9677 57.0738 26.733C55.8522 18.2919 49.8455 11.1998 41.6988 8.57215C40.2619 8.10637 38.7328 7.7856 37.0191 7.59226C36.5972 7.54832 33.6927 7.49999 33.328 7.53514V7.53514ZM42.5293 21.1305C42.7402 21.236 42.9116 21.4381 42.9731 21.649C43.0082 21.7632 43.017 24.2064 43.0082 29.7122L42.9951 37.6128L41.6021 35.4772L40.2048 33.3417V27.5986C40.2048 23.8856 40.2224 21.7984 40.2487 21.6973C40.3191 21.4513 40.4728 21.2579 40.6838 21.1437C40.8639 21.0514 40.9298 21.0426 41.6197 21.0426C42.27 21.0426 42.3843 21.0514 42.5293 21.1305V21.1305Z" fill="black" fill-opacity="0.2"/>
<path d="M46.7651 49.0375C46.6113 49.1341 46.563 49.2 46.6992 49.1253C46.7959 49.0682 46.9541 48.9496 46.9277 48.9452C46.9145 48.9452 46.8398 48.9891 46.7651 49.0375ZM46.4619 49.2352C46.3828 49.2967 46.3828 49.3011 46.4795 49.2528C46.5322 49.2264 46.5762 49.1957 46.5762 49.1869C46.5762 49.1517 46.5542 49.1605 46.4619 49.2352ZM46.2422 49.367C46.1631 49.4285 46.1631 49.4329 46.2598 49.3846C46.3125 49.3582 46.3565 49.3275 46.3565 49.3187C46.3565 49.2835 46.3345 49.2923 46.2422 49.367ZM46.0225 49.4989C45.9434 49.5604 45.9434 49.5648 46.0401 49.5164C46.0928 49.4901 46.1368 49.4593 46.1368 49.4505C46.1368 49.4154 46.1148 49.4242 46.0225 49.4989ZM45.6886 49.6746C45.5216 49.7625 45.5304 49.7977 45.6973 49.7142C45.772 49.6746 45.8292 49.6351 45.8292 49.6263C45.8292 49.5955 45.8248 49.5999 45.6886 49.6746Z" fill="black"/>
</g>
<defs>
<filter id="filter0_d_678_819" x="71.7139" y="19.5615" width="121.852" height="21.4385" filterUnits="userSpaceOnUse" color-interpolation-filters="sRGB">
<feFlood flood-opacity="0" result="BackgroundImageFix"/>
<feColorMatrix in="SourceAlpha" type="matrix" values="0 0 0 0 0 0 0 0 0 0 0 0 0 0 0 0 0 0 127 0" result="hardAlpha"/>
<feOffset dx="1" dy="1"/>
<feGaussianBlur stdDeviation="0.5"/>
<feComposite in2="hardAlpha" operator="out"/>
<feColorMatrix type="matrix" values="0 0 0 0 0 0 0 0 0 0 0 0 0 0 0 0 0 0 1 0"/>
<feBlend mode="normal" in2="BackgroundImageFix" result="effect1_dropShadow_678_819"/>
<feBlend mode="normal" in="SourceGraphic" in2="effect1_dropShadow_678_819" result="shape"/>
</filter>
<filter id="filter1_ii_678_819" x="9" y="4" width="51" height="51" filterUnits="userSpaceOnUse" color-interpolation-filters="sRGB">
<feFlood flood-opacity="0" result="BackgroundImageFix"/>
<feBlend mode="normal" in="SourceGraphic" in2="BackgroundImageFix" result="shape"/>
<feColorMatrix in="SourceAlpha" type="matrix" values="0 0 0 0 0 0 0 0 0 0 0 0 0 0 0 0 0 0 127 0" result="hardAlpha"/>
<feOffset/>
<feGaussianBlur stdDeviation="0.5"/>
<feComposite in2="hardAlpha" operator="arithmetic" k2="-1" k3="1"/>
<feColorMatrix type="matrix" values="0 0 0 0 0.129412 0 0 0 0 0.0235294 0 0 0 0 0.0235294 0 0 0 0.5 0"/>
<feBlend mode="normal" in2="shape" result="effect1_innerShadow_678_819"/>
<feColorMatrix in="SourceAlpha" type="matrix" values="0 0 0 0 0 0 0 0 0 0 0 0 0 0 0 0 0 0 127 0" result="hardAlpha"/>
<feOffset dx="-1" dy="-1"/>
<feGaussianBlur stdDeviation="1"/>
<feComposite in2="hardAlpha" operator="arithmetic" k2="-1" k3="1"/>
<feColorMatrix type="matrix" values="0 0 0 0 0.129167 0 0 0 0 0.0236806 0 0 0 0 0.0236806 0 0 0 1 0"/>
<feBlend mode="normal" in2="effect1_innerShadow_678_819" result="effect2_innerShadow_678_819"/>
</filter>
<linearGradient id="paint0_linear_678_819" x1="102" y1="0" x2="102" y2="60" gradientUnits="userSpaceOnUse">
<stop stop-color="#FA6800"/>
<stop offset="1" stop-color="#1F324E"/>
</linearGradient>
<clipPath id="clip0_678_819">
<rect x="12.3" y="7.5" width="45" height="45" rx="22.5" fill="white"/>
</clipPath>
</defs>
</svg>
