<svg width="225" height="60" viewBox="0 0 225 60" fill="none" xmlns="http://www.w3.org/2000/svg">
<rect width="225" height="60" rx="5" fill="white"/>
<g filter="url(#filter0_d_701_999)">
<path d="M90.376 39H83.4912L71.7139 19.5615H78.5547L90.376 39ZM71.7139 39V21.4072L77.3535 30.6504V39H71.7139ZM90.376 19.5615V37.1543L84.7363 27.8672V19.5615H90.376ZM111.257 35.1182L107.375 39H103.039V35.3672H104.651V27.3252H103.039V23.4434H107.375L111.257 27.3252V35.1182ZM100.329 35.3672H102.014V39H97.6633L93.7814 35.1182V27.3252L97.6633 23.4434H102.014V27.3252H100.329V35.3672ZM131.45 17.5107V39H124.975V17.5107H131.45ZM120.829 35.3672H123.95V37.4619L122.412 39H117.856L114.355 35.499V26.9443L117.856 23.4434H123.95V27.3252H120.829V35.3672ZM141.139 39H138.546L134.665 35.1182V27.3252L138.546 23.4434H141.139V39ZM142.165 32.7598V30.0498H145.578V27.3252H142.165V23.4434H147.658L151.54 27.3252V32.7598H142.165ZM142.165 39V35.3672H150.866V37.0518L148.932 39H142.165ZM164.269 19.5615H179.679V35.1182L175.797 39H173.204V23.7949H164.269V19.5615ZM168.634 35.1182H172.179V39H165.807L161.91 35.1182V30.8555H168.634V35.1182ZM195.242 39V31.7197H186.834L182.938 27.8232V23.4434L186.834 19.5615H189.031V26.4609H197.967L201.732 30.3574V35.1182L197.85 39H195.242ZM190.057 23.0625V19.5615H197.835L201.204 22.9453V25.0107H195.242V23.0625H190.057ZM182.938 33.1699H189.412V35.4844H194.217V39H186.204L182.938 35.1182V33.1699Z" fill="#339933"/>
</g>
<g filter="url(#filter1_ii_701_999)">
<circle cx="35" cy="30" r="25" fill="white"/>
</g>
<g clip-path="url(#clip0_701_999)">
<path d="M34.5 49.4384C33.9565 49.4384 33.4493 49.2935 32.9783 49.0399L28.1594 46.1775C27.4348 45.779 27.7971 45.6341 28.0145 45.5616C28.9928 45.2355 29.1739 45.163 30.1884 44.5833C30.2971 44.5109 30.442 44.5471 30.5507 44.6196L34.2464 46.8297C34.3913 46.9022 34.5725 46.9022 34.6812 46.8297L49.1377 38.4601C49.2826 38.3877 49.3551 38.2428 49.3551 38.0616V21.3587C49.3551 21.1775 49.2826 21.0326 49.1377 20.9601L34.6812 12.6268C34.5362 12.5543 34.3551 12.5543 34.2464 12.6268L19.7899 20.9601C19.6449 21.0326 19.5725 21.2138 19.5725 21.3587V38.0616C19.5725 38.2065 19.6449 38.3877 19.7899 38.4601L23.7391 40.7428C25.8768 41.8297 27.2174 40.5616 27.2174 39.2935V22.808C27.2174 22.5906 27.3986 22.3732 27.6522 22.3732H29.5C29.7174 22.3732 29.9348 22.5543 29.9348 22.808V39.2935C29.9348 42.1558 28.3768 43.8225 25.6594 43.8225C24.8261 43.8225 24.1739 43.8225 22.3261 42.9167L18.5217 40.7428C17.5797 40.1993 17 39.1848 17 38.0978V21.3949C17 20.308 17.5797 19.2935 18.5217 18.75L32.9783 10.3804C33.8841 9.87319 35.1159 9.87319 36.0217 10.3804L50.4783 18.75C51.4203 19.2935 52 20.308 52 21.3949V38.0978C52 39.1848 51.4203 40.1993 50.4783 40.7428L36.0217 49.1123C35.5507 49.3297 35.0072 49.4384 34.5 49.4384ZM38.9565 37.9529C32.6159 37.9529 31.3116 35.0543 31.3116 32.5906C31.3116 32.3732 31.4928 32.1558 31.7464 32.1558H33.6304C33.8478 32.1558 34.029 32.3007 34.029 32.5181C34.3188 34.4384 35.1522 35.3804 38.9928 35.3804C42.0362 35.3804 43.3406 34.692 43.3406 33.0616C43.3406 32.1196 42.9783 31.4312 38.2319 30.9601C34.2826 30.5616 31.8188 29.692 31.8188 26.5399C31.8188 23.6051 34.2826 21.8659 38.413 21.8659C43.0507 21.8659 45.3333 23.4601 45.6232 26.9384C45.6232 27.0471 45.587 27.1558 45.5145 27.2645C45.442 27.337 45.3333 27.4094 45.2246 27.4094H43.3406C43.1594 27.4094 42.9783 27.2645 42.942 27.0833C42.5072 25.0906 41.3841 24.4384 38.413 24.4384C35.0797 24.4384 34.6812 25.5978 34.6812 26.4674C34.6812 27.5181 35.1522 27.8442 39.6449 28.4239C44.1014 29.0036 46.2029 29.837 46.2029 32.9529C46.1667 36.1413 43.558 37.9529 38.9565 37.9529Z" fill="#539E43"/>
</g>
<defs>
<filter id="filter0_d_701_999" x="71.7139" y="17.5107" width="132.018" height="23.4893" filterUnits="userSpaceOnUse" color-interpolation-filters="sRGB">
<feFlood flood-opacity="0" result="BackgroundImageFix"/>
<feColorMatrix in="SourceAlpha" type="matrix" values="0 0 0 0 0 0 0 0 0 0 0 0 0 0 0 0 0 0 127 0" result="hardAlpha"/>
<feOffset dx="1" dy="1"/>
<feGaussianBlur stdDeviation="0.5"/>
<feComposite in2="hardAlpha" operator="out"/>
<feColorMatrix type="matrix" values="0 0 0 0 0 0 0 0 0 0 0 0 0 0 0 0 0 0 1 0"/>
<feBlend mode="normal" in2="BackgroundImageFix" result="effect1_dropShadow_701_999"/>
<feBlend mode="normal" in="SourceGraphic" in2="effect1_dropShadow_701_999" result="shape"/>
</filter>
<filter id="filter1_ii_701_999" x="9" y="4" width="51" height="51" filterUnits="userSpaceOnUse" color-interpolation-filters="sRGB">
<feFlood flood-opacity="0" result="BackgroundImageFix"/>
<feBlend mode="normal" in="SourceGraphic" in2="BackgroundImageFix" result="shape"/>
<feColorMatrix in="SourceAlpha" type="matrix" values="0 0 0 0 0 0 0 0 0 0 0 0 0 0 0 0 0 0 127 0" result="hardAlpha"/>
<feOffset/>
<feGaussianBlur stdDeviation="0.5"/>
<feComposite in2="hardAlpha" operator="arithmetic" k2="-1" k3="1"/>
<feColorMatrix type="matrix" values="0 0 0 0 0.129412 0 0 0 0 0.0235294 0 0 0 0 0.0235294 0 0 0 0.5 0"/>
<feBlend mode="normal" in2="shape" result="effect1_innerShadow_701_999"/>
<feColorMatrix in="SourceAlpha" type="matrix" values="0 0 0 0 0 0 0 0 0 0 0 0 0 0 0 0 0 0 127 0" result="hardAlpha"/>
<feOffset dx="-1" dy="-1"/>
<feGaussianBlur stdDeviation="1"/>
<feComposite in2="hardAlpha" operator="arithmetic" k2="-1" k3="1"/>
<feColorMatrix type="matrix" values="0 0 0 0 0.129167 0 0 0 0 0.0236806 0 0 0 0 0.0236806 0 0 0 1 0"/>
<feBlend mode="normal" in2="effect1_innerShadow_701_999" result="effect2_innerShadow_701_999"/>
</filter>
<clipPath id="clip0_701_999">
<rect width="35" height="39.5117" fill="white" transform="translate(17 10)"/>
</clipPath>
</defs>
</svg>
