<svg width="226" height="60" viewBox="0 0 226 60" fill="none" xmlns="http://www.w3.org/2000/svg">
<rect width="226" height="60" rx="5" fill="url(#paint0_linear_699_882)"/>
<rect width="226" height="60" rx="5" fill="#1F324E"/>
<g filter="url(#filter0_d_699_882)">
<path d="M71.7139 39V19.5615H78.1885V39H71.7139ZM79.2139 23.4434V19.5615H86.6113L90.5078 23.4434V29.2734L87.5195 32.2617L87.3145 31.8516L81.2354 32.6572L81.4697 33.1699H79.2139V29.4053H84.0771V23.4434H79.2139ZM91.167 39H84.2529L81.4697 33.1699H86.6113L87.5195 32.2617L91.167 39ZM99.9338 39H97.341L93.4592 35.1182V27.3252L97.341 23.4434H99.9338V39ZM100.959 32.7598V30.0498H104.372V27.3252H100.959V23.4434H106.452L110.334 27.3252V32.7598H100.959ZM100.959 39V35.3672H109.66V37.0518L107.727 39H100.959ZM123.657 39V27.3252H114.443V25.3916L116.391 23.4434H126.103L129.985 27.3252V39H123.657ZM122.631 29.9473V32.6426H119.291V35.3672H122.631V37.0811L120.698 39H115.746L113.139 36.4365V32.54L115.746 29.9473H122.631ZM139.557 39H136.964L133.083 35.1182V27.3252L136.964 23.4434H139.557V39ZM140.583 27.3252V23.4434H146.046L149.928 27.3252V29.6543H143.454V27.3252H140.583ZM140.583 39V35.3672H143.454V33.4189H149.928V35.1182L146.046 39H140.583ZM159.559 35.1182H163.837V39H156.981L153.085 35.1182V27.3252H151.796V23.4434H153.085V21.7588L159.559 19.5615V35.1182ZM160.585 27.3252V23.4434H164.071V27.3252H160.585ZM176.287 19.5615H191.697V35.1182L187.816 39H185.223V23.7949H176.287V19.5615ZM180.653 35.1182H184.197V39H177.825L173.929 35.1182V30.8555H180.653V35.1182ZM207.261 39V31.7197H198.853L194.956 27.8232V23.4434L198.853 19.5615H201.05V26.4609H209.986L213.75 30.3574V35.1182L209.869 39H207.261ZM202.076 23.0625V19.5615H209.854L213.223 22.9453V25.0107H207.261V23.0625H202.076ZM194.956 33.1699H201.431V35.4844H206.236V39H198.223L194.956 35.1182V33.1699Z" fill="#61DAFB"/>
</g>
<g filter="url(#filter1_ii_699_882)">
<circle cx="35" cy="30" r="25" fill="white"/>
</g>
<path d="M34.5 33.5078C36.7135 33.5078 38.5078 31.7135 38.5078 29.5C38.5078 27.2865 36.7135 25.4922 34.5 25.4922C32.2865 25.4922 30.4922 27.2865 30.4922 29.5C30.4922 31.7135 32.2865 33.5078 34.5 33.5078Z" fill="#61DAFB"/>
<path d="M49.7227 22.8906C48.9492 22.6094 48.1406 22.3281 47.2969 22.082C47.5078 21.2383 47.6836 20.3945 47.8242 19.5859C48.5625 14.9453 47.7539 11.6758 45.5039 10.4102C44.8359 10.0234 44.0977 9.84766 43.2539 9.84766C40.793 9.84766 37.6641 11.6758 34.5 14.7344C31.3359 11.6758 28.207 9.84766 25.7461 9.84766C24.9023 9.84766 24.1641 10.0234 23.4961 10.4102C21.2461 11.7109 20.4375 14.9805 21.1758 19.5859C21.3164 20.3945 21.4922 21.2383 21.7031 22.082C20.8594 22.3281 20.0508 22.5742 19.2773 22.8906C14.8828 24.5781 12.4922 26.8984 12.4922 29.5C12.4922 32.1016 14.918 34.4219 19.2773 36.1094C20.0508 36.3906 20.8594 36.6719 21.7031 36.918C21.4922 37.7617 21.3164 38.6055 21.1758 39.4141C20.4375 44.0547 21.2461 47.3242 23.4961 48.5898C24.1641 48.9766 24.9023 49.1523 25.7461 49.1523C28.2422 49.1523 31.3711 47.3242 34.5 44.2656C37.6641 47.3242 40.793 49.1523 43.2539 49.1523C44.0977 49.1523 44.8359 48.9766 45.5039 48.5898C47.7539 47.2891 48.5625 44.0195 47.8242 39.4141C47.6836 38.6055 47.5078 37.7617 47.2969 36.918C48.1406 36.6719 48.9492 36.4258 49.7227 36.1094C54.1172 34.4219 56.5078 32.1016 56.5078 29.5C56.5078 26.8984 54.1172 24.5781 49.7227 22.8906ZM44.5195 12.168C45.9609 13.0117 46.4531 15.6133 45.8555 19.3047C45.75 20.043 45.5742 20.8164 45.3633 21.625C43.5352 21.2031 41.6016 20.9219 39.5625 20.7461C38.3672 19.0586 37.1367 17.5469 35.9062 16.1758C38.5078 13.6094 41.1445 11.8516 43.2891 11.8516C43.7461 11.8516 44.168 11.957 44.5195 12.168ZM40.582 33.0156C39.9492 34.1406 39.2109 35.2656 38.4375 36.3906C37.1367 36.4961 35.8359 36.5312 34.5 36.5312C33.1289 36.5312 31.8281 36.4961 30.5625 36.3906C29.7891 35.2656 29.0859 34.1406 28.4531 33.0156C27.7852 31.8555 27.1523 30.6602 26.5898 29.5C27.1523 28.3398 27.7852 27.1445 28.4531 25.9844C29.0859 24.8594 29.8242 23.7344 30.5977 22.6094C31.8984 22.5039 33.1992 22.4688 34.5352 22.4688C35.9062 22.4688 37.207 22.5039 38.4727 22.6094C39.2461 23.7344 39.9492 24.8594 40.582 25.9844C41.25 27.1445 41.8828 28.3398 42.4453 29.5C41.8477 30.6602 41.25 31.8203 40.582 33.0156ZM43.5 31.8555C44.0273 33.0859 44.4492 34.2812 44.8359 35.4766C43.6406 35.7578 42.375 35.9688 41.0391 36.1445C41.4609 35.4766 41.918 34.7734 42.3047 34.0352C42.7266 33.2969 43.1133 32.5586 43.5 31.8555ZM34.5 41.3828C33.6562 40.4688 32.8477 39.4844 32.0742 38.4648C32.8828 38.5 33.6914 38.5352 34.5 38.5352C35.3086 38.5352 36.1172 38.5 36.9258 38.4648C36.1523 39.4844 35.3438 40.4688 34.5 41.3828ZM27.9609 36.1094C26.625 35.9336 25.3594 35.7227 24.1641 35.4414C24.5508 34.2813 24.9727 33.0508 25.5 31.8203C25.8867 32.5234 26.2734 33.2617 26.6953 33.9648C27.1172 34.7383 27.5391 35.4063 27.9609 36.1094ZM25.5 27.1445C24.9727 25.9141 24.5508 24.7188 24.1641 23.5234C25.3594 23.2422 26.625 23.0312 27.9609 22.8555C27.5391 23.5234 27.082 24.2266 26.6953 24.9648C26.2734 25.7031 25.8867 26.4414 25.5 27.1445ZM34.5 17.6172C35.3438 18.5312 36.1523 19.5156 36.9258 20.5352C36.1172 20.5 35.3086 20.4648 34.5 20.4648C33.6914 20.4648 32.8828 20.5 32.0742 20.5352C32.8477 19.5156 33.6562 18.5312 34.5 17.6172ZM42.3047 25L41.0391 22.8906C42.375 23.0664 43.6406 23.2773 44.8359 23.5586C44.4492 24.7188 44.0273 25.9492 43.5 27.1797C43.1133 26.4414 42.7266 25.7031 42.3047 25ZM23.1445 19.3047C22.5469 15.6133 23.0391 13.0117 24.4805 12.168C24.832 11.957 25.2539 11.8516 25.7109 11.8516C27.8203 11.8516 30.457 13.5742 33.0938 16.1758C31.8633 17.5117 30.6328 19.0586 29.4375 20.7461C27.3984 20.9219 25.4648 21.2383 23.6367 21.625C23.4258 20.8164 23.2852 20.043 23.1445 19.3047ZM14.4609 29.5C14.4609 27.8477 16.4648 26.0898 19.9805 24.7891C20.6836 24.5078 21.457 24.2617 22.2305 24.0508C22.793 25.8086 23.4961 27.6719 24.3398 29.5352C23.4961 31.3984 22.7578 33.2266 22.2305 34.9844C17.3789 33.5781 14.4609 31.4688 14.4609 29.5ZM24.4805 46.832C23.0391 45.9883 22.5469 43.3867 23.1445 39.6953C23.25 38.957 23.4258 38.1836 23.6367 37.375C25.4648 37.7969 27.3984 38.0781 29.4375 38.2539C30.6328 39.9414 31.8633 41.4531 33.0938 42.8242C30.4922 45.3906 27.8555 47.1484 25.7109 47.1484C25.2539 47.1484 24.832 47.043 24.4805 46.832ZM45.8555 39.6953C46.4531 43.3867 45.9609 45.9883 44.5195 46.832C44.168 47.043 43.7461 47.1484 43.2891 47.1484C41.1797 47.1484 38.543 45.4258 35.9062 42.8242C37.1367 41.4883 38.3672 39.9414 39.5625 38.2539C41.6016 38.0781 43.5352 37.7617 45.3633 37.375C45.5742 38.1836 45.7148 38.957 45.8555 39.6953ZM49.0195 34.2109C48.3164 34.4922 47.543 34.7383 46.7695 34.9492C46.207 33.1914 45.5039 31.3281 44.6602 29.4648C45.5039 27.6016 46.2422 25.7734 46.7695 24.0156C51.6211 25.4219 54.5391 27.5312 54.5391 29.5C54.5391 31.1523 52.5 32.9102 49.0195 34.2109Z" fill="#61DAFB"/>
<defs>
<filter id="filter0_d_699_882" x="71.7139" y="19.5615" width="144.037" height="21.4385" filterUnits="userSpaceOnUse" color-interpolation-filters="sRGB">
<feFlood flood-opacity="0" result="BackgroundImageFix"/>
<feColorMatrix in="SourceAlpha" type="matrix" values="0 0 0 0 0 0 0 0 0 0 0 0 0 0 0 0 0 0 127 0" result="hardAlpha"/>
<feOffset dx="1" dy="1"/>
<feGaussianBlur stdDeviation="0.5"/>
<feComposite in2="hardAlpha" operator="out"/>
<feColorMatrix type="matrix" values="0 0 0 0 0 0 0 0 0 0 0 0 0 0 0 0 0 0 1 0"/>
<feBlend mode="normal" in2="BackgroundImageFix" result="effect1_dropShadow_699_882"/>
<feBlend mode="normal" in="SourceGraphic" in2="effect1_dropShadow_699_882" result="shape"/>
</filter>
<filter id="filter1_ii_699_882" x="9" y="4" width="51" height="51" filterUnits="userSpaceOnUse" color-interpolation-filters="sRGB">
<feFlood flood-opacity="0" result="BackgroundImageFix"/>
<feBlend mode="normal" in="SourceGraphic" in2="BackgroundImageFix" result="shape"/>
<feColorMatrix in="SourceAlpha" type="matrix" values="0 0 0 0 0 0 0 0 0 0 0 0 0 0 0 0 0 0 127 0" result="hardAlpha"/>
<feOffset/>
<feGaussianBlur stdDeviation="0.5"/>
<feComposite in2="hardAlpha" operator="arithmetic" k2="-1" k3="1"/>
<feColorMatrix type="matrix" values="0 0 0 0 0.129412 0 0 0 0 0.0235294 0 0 0 0 0.0235294 0 0 0 0.5 0"/>
<feBlend mode="normal" in2="shape" result="effect1_innerShadow_699_882"/>
<feColorMatrix in="SourceAlpha" type="matrix" values="0 0 0 0 0 0 0 0 0 0 0 0 0 0 0 0 0 0 127 0" result="hardAlpha"/>
<feOffset dx="-1" dy="-1"/>
<feGaussianBlur stdDeviation="1"/>
<feComposite in2="hardAlpha" operator="arithmetic" k2="-1" k3="1"/>
<feColorMatrix type="matrix" values="0 0 0 0 0.129167 0 0 0 0 0.0236806 0 0 0 0 0.0236806 0 0 0 1 0"/>
<feBlend mode="normal" in2="effect1_innerShadow_699_882" result="effect2_innerShadow_699_882"/>
</filter>
<linearGradient id="paint0_linear_699_882" x1="113" y1="0" x2="113" y2="60" gradientUnits="userSpaceOnUse">
<stop stop-color="#FA6800"/>
<stop offset="1" stop-color="#1F324E"/>
</linearGradient>
</defs>
</svg>
