<svg width="161" height="60" viewBox="0 0 161 60" fill="none" xmlns="http://www.w3.org/2000/svg">
<rect width="161" height="60" rx="5" fill="url(#paint0_linear_692_1030)"/>
<rect width="161" height="60" rx="5" fill="#1F324E"/>
<g filter="url(#filter0_d_692_1030)">
<path d="M83.7256 39V31.7197H75.3174L71.4209 27.8232V23.4434L75.3174 19.5615H77.5146V26.4609H86.4502L90.2148 30.3574V35.1182L86.333 39H83.7256ZM78.54 23.0625V19.5615H86.3184L89.6875 22.9453V25.0107H83.7256V23.0625H78.54ZM71.4209 33.1699H77.8955V35.4844H82.7002V39H74.6875L71.4209 35.1182V33.1699ZM103.728 39V27.3252H94.5139V25.3916L96.4621 23.4434H106.174L110.056 27.3252V39H103.728ZM102.702 29.9473V32.6426H99.3625V35.3672H102.702V37.0811L100.769 39H95.8176L93.2102 36.4365V32.54L95.8176 29.9473H102.702ZM116.669 23.4434H119.262V28.9365H126.645L130.014 32.335V35.3672L126.396 39H123.539V33.126H116.537L113.168 29.8887V26.9297L116.669 23.4434ZM119.643 36.1436H122.514V39L115.849 38.9854L113.154 35.792V34.5469H119.643V36.1436ZM123.539 26.2998H120.287V23.4434H127.172L129.487 25.7578V27.5156H123.539V26.2998ZM136.247 23.4434H138.839V28.9365H146.222L149.591 32.335V35.3672L145.973 39H143.117V33.126H136.115L132.746 29.8887V26.9297L136.247 23.4434ZM139.22 36.1436H142.091V39L135.426 38.9854L132.731 35.792V34.5469H139.22V36.1436ZM143.117 26.2998H139.865V23.4434H146.75L149.064 25.7578V27.5156H143.117V26.2998Z" fill="#CC6699"/>
</g>
<g filter="url(#filter1_ii_692_1030)">
<path d="M10 10C10 7.23858 12.2386 5 15 5H55C57.7614 5 60 7.23858 60 10V50C60 52.7614 57.7614 55 55 55H15C12.2386 55 10 52.7614 10 50V10Z" fill="white"/>
</g>
<path d="M48.7173 31.7106C47.4808 31.7122 46.2608 31.995 45.1496 32.5375C44.8017 31.9602 44.5331 31.3386 44.3509 30.6897C44.2462 30.181 44.222 29.659 44.2792 29.1428C44.3994 28.5748 44.5553 28.0149 44.746 27.4666C44.739 27.3948 44.6603 27.0559 43.8686 27.0447C43.0768 27.0334 42.3948 27.1951 42.3217 27.4047C42.1842 27.7874 42.0737 28.1793 41.9912 28.5775C41.336 30.194 40.5294 31.745 39.5823 33.2097C39.0517 32.3398 38.8334 31.315 38.9635 30.3044C39.0837 29.7364 39.2397 29.1765 39.4304 28.6281C39.4234 28.5564 39.3446 28.2175 38.5529 28.2062C37.7612 28.195 37.0792 28.3567 37.006 28.5662C36.9329 28.7758 36.8401 29.2694 36.6756 29.7391C36.5111 30.2087 34.5901 34.5006 34.0867 35.6073C33.8279 36.1698 33.6043 36.6283 33.4468 36.9376C33.4394 36.9577 33.4299 36.9771 33.4187 36.9953C33.2781 37.2611 33.2036 37.4059 33.2036 37.4059V37.413C33.0953 37.607 32.98 37.787 32.9223 37.787C32.8217 37.3853 32.8266 36.9643 32.9364 36.565C33.2176 35.0758 33.9067 32.7611 33.8996 32.6809C33.8996 32.6373 34.029 32.2352 33.4539 32.027C33.3205 31.9635 33.1707 31.943 33.0251 31.9682C32.8795 31.9934 32.7454 32.063 32.6411 32.1676C32.5904 32.1676 32.5553 32.29 32.5553 32.29C32.5553 32.29 33.181 29.687 31.3614 29.687C30.6527 29.8296 29.9798 30.1124 29.3821 30.5188C28.7843 30.9253 28.274 31.4471 27.8809 32.0537C27.3915 32.3195 26.3495 32.8876 25.2343 33.4994C24.8125 33.737 24.3709 33.9747 23.9617 34.2025C23.9335 34.1744 23.904 34.1378 23.8759 34.1097C21.661 31.75 17.59 30.085 17.7657 26.928C17.8304 25.7776 18.2256 22.757 25.5831 19.0881C31.6384 16.1041 36.4576 16.9309 37.2915 18.7647C38.4854 21.3831 34.7096 26.2445 28.4532 26.9491C27.7611 27.0895 27.0462 27.0725 26.3615 26.8995C25.6768 26.7264 25.0398 26.4016 24.4975 25.9492C24.167 25.5892 24.1164 25.5681 23.994 25.6398C23.7929 25.7481 23.9223 26.0716 23.994 26.2586C24.2327 26.6905 24.5555 27.0702 24.9434 27.3753C25.3313 27.6803 25.7764 27.9046 26.2525 28.0347C28.7137 28.5666 31.2799 28.3122 33.5889 27.3076C37.3857 25.8409 40.3389 21.7628 39.4726 18.347C38.6021 14.8806 32.8492 13.7373 27.4042 15.6751C23.9937 16.8228 20.8424 18.6304 18.13 20.995C15.1304 23.8005 14.6565 26.2375 14.8506 27.2598C15.5537 30.8851 20.5473 33.2434 22.5456 34.9942C22.4443 35.0519 22.3515 35.1025 22.2728 35.1447C21.2729 35.6411 17.462 37.6337 16.5071 39.7403C15.4286 42.1309 16.6801 43.8395 17.507 44.0701C18.7529 44.3684 20.0609 44.2702 21.2483 43.7891C22.4357 43.3081 23.4433 42.4683 24.1304 41.387C24.7155 40.4901 25.0752 39.4651 25.1787 38.3993C25.2823 37.3335 25.1267 36.2584 24.7253 35.2656C24.7185 35.2496 24.709 35.2348 24.6971 35.222L25.4804 34.7622C25.9909 34.4598 26.4943 34.18 26.9261 33.9494C26.6333 34.7937 26.4614 35.6753 26.4156 36.5678C26.3162 37.9358 26.7348 39.2911 27.5884 40.3647C27.7183 40.4765 27.8691 40.5614 28.032 40.6145C28.1949 40.6676 28.3668 40.6879 28.5376 40.6741C29.3814 40.6741 29.7681 39.9709 30.1914 39.1356C30.7089 38.1147 31.1757 36.9278 31.1757 36.9278C31.1757 36.9278 30.5936 40.1355 32.1756 40.1355C32.7507 40.1355 33.3329 39.3873 33.5931 39.0105V39.0175C33.5931 39.0175 33.6071 38.9964 33.6367 38.9458L33.7295 38.7953V38.7812C33.9601 38.3791 34.4776 37.465 35.2468 35.9476C36.2396 33.9916 37.1959 31.5461 37.1959 31.5461C37.2881 32.0835 37.4154 32.6143 37.577 33.1351C37.8086 33.7665 38.0825 34.3815 38.3968 34.9759C38.1662 35.2994 38.0228 35.4794 38.0228 35.4794L38.0298 35.4864C37.8428 35.7311 37.6417 35.9969 37.4181 36.2556C36.7528 36.987 36.1356 37.7606 35.5703 38.5717C35.4863 38.7079 35.4574 38.8711 35.4895 39.0279C35.5217 39.1847 35.6124 39.3233 35.7432 39.4155C36.0393 39.5695 36.3767 39.6252 36.7065 39.5744C37.2036 39.5463 37.6923 39.4346 38.1521 39.2439C38.5965 39.0875 39.0158 38.8672 39.3967 38.59C39.7893 38.318 40.1054 37.9495 40.3145 37.52C40.5236 37.0904 40.6187 36.6144 40.5906 36.1375C40.5464 35.5368 40.3929 34.9492 40.1378 34.4036C40.2095 34.3023 40.2784 34.2025 40.3459 34.1012C41.1454 32.9079 41.866 31.6635 42.5031 30.3761C42.5953 30.9135 42.7226 31.4443 42.8842 31.9651C43.0752 32.5107 43.3104 33.0398 43.5873 33.5472C42.6675 34.2548 41.9431 35.185 41.4821 36.25C41.0293 37.5592 41.3809 38.1484 42.0446 38.2848C42.4078 38.3099 42.771 38.2355 43.0951 38.0697C43.5717 37.9131 44.0206 37.6824 44.4254 37.3862C44.8523 37.1343 45.2098 36.7802 45.4659 36.3558C45.7219 35.9314 45.8684 35.4499 45.8921 34.9548C45.8602 34.4606 45.7486 33.9748 45.5617 33.5162C46.7754 33.0421 48.0914 32.8909 49.3811 33.0775C52.8039 33.4797 53.4803 35.6158 53.3509 36.5158C53.2902 36.8348 53.1619 37.1372 52.9747 37.4026C52.7874 37.6679 52.5455 37.8901 52.2653 38.0542C52.0276 38.2047 51.9489 38.2553 51.97 38.3636C51.9981 38.5225 52.1106 38.5141 52.3145 38.4859C52.8304 38.3256 53.2855 38.0126 53.6199 37.5884C53.9543 37.1641 54.1522 36.6484 54.1876 36.1094C54.2959 34 52.2821 31.6867 48.7215 31.7078L48.7173 31.7106ZM22.3079 40.6094C21.1717 41.8469 19.5896 42.3137 18.9062 41.9186C18.1721 41.4967 18.4604 39.6686 19.8554 38.358C20.6829 37.6131 21.5773 36.946 22.5273 36.3653C22.6932 36.2641 22.9379 36.1206 23.2304 35.9434L23.3092 35.8998L23.4821 35.7916C23.7314 36.6266 23.754 37.5129 23.5476 38.3595C23.3413 39.2062 22.9134 39.9827 22.3079 40.6094V40.6094ZM30.5781 34.9844C30.1829 35.9476 29.3561 38.4156 28.8526 38.2778C28.4209 38.1625 28.1495 36.2922 28.7668 34.4444C29.0785 33.5548 29.5326 32.7218 30.1112 31.9778C30.73 31.2873 31.4134 31.0567 31.5779 31.338C31.4278 32.5964 31.0908 33.8254 30.5781 34.9844V34.9844ZM37.4026 38.2497C37.2367 38.3355 37.0792 38.3903 37.0075 38.3509C36.9568 38.3228 37.0792 38.2103 37.0792 38.2103C37.0792 38.2103 37.9356 37.2892 38.2731 36.873C38.4671 36.6283 38.695 36.3414 38.9425 36.0166V36.1094C38.9425 37.2091 37.8779 37.9502 37.404 38.2525L37.4026 38.2497ZM42.6676 37.0487C42.5453 36.963 42.5664 36.6747 42.977 35.7761C43.2625 35.199 43.6614 34.6853 44.1498 34.2658C44.2247 34.4786 44.2636 34.7025 44.2651 34.9281C44.2707 35.4084 44.1171 35.877 43.8284 36.2609C43.5396 36.6447 43.132 36.9223 42.669 37.0501L42.6676 37.0487Z" fill="#CD6799"/>
<defs>
<filter id="filter0_d_692_1030" x="71.4209" y="19.5615" width="80.1704" height="21.4385" filterUnits="userSpaceOnUse" color-interpolation-filters="sRGB">
<feFlood flood-opacity="0" result="BackgroundImageFix"/>
<feColorMatrix in="SourceAlpha" type="matrix" values="0 0 0 0 0 0 0 0 0 0 0 0 0 0 0 0 0 0 127 0" result="hardAlpha"/>
<feOffset dx="1" dy="1"/>
<feGaussianBlur stdDeviation="0.5"/>
<feComposite in2="hardAlpha" operator="out"/>
<feColorMatrix type="matrix" values="0 0 0 0 0 0 0 0 0 0 0 0 0 0 0 0 0 0 0.5 0"/>
<feBlend mode="normal" in2="BackgroundImageFix" result="effect1_dropShadow_692_1030"/>
<feBlend mode="normal" in="SourceGraphic" in2="effect1_dropShadow_692_1030" result="shape"/>
</filter>
<filter id="filter1_ii_692_1030" x="9" y="4" width="51" height="51" filterUnits="userSpaceOnUse" color-interpolation-filters="sRGB">
<feFlood flood-opacity="0" result="BackgroundImageFix"/>
<feBlend mode="normal" in="SourceGraphic" in2="BackgroundImageFix" result="shape"/>
<feColorMatrix in="SourceAlpha" type="matrix" values="0 0 0 0 0 0 0 0 0 0 0 0 0 0 0 0 0 0 127 0" result="hardAlpha"/>
<feOffset/>
<feGaussianBlur stdDeviation="0.5"/>
<feComposite in2="hardAlpha" operator="arithmetic" k2="-1" k3="1"/>
<feColorMatrix type="matrix" values="0 0 0 0 0.129412 0 0 0 0 0.0235294 0 0 0 0 0.0235294 0 0 0 0.5 0"/>
<feBlend mode="normal" in2="shape" result="effect1_innerShadow_692_1030"/>
<feColorMatrix in="SourceAlpha" type="matrix" values="0 0 0 0 0 0 0 0 0 0 0 0 0 0 0 0 0 0 127 0" result="hardAlpha"/>
<feOffset dx="-1" dy="-1"/>
<feGaussianBlur stdDeviation="1"/>
<feComposite in2="hardAlpha" operator="arithmetic" k2="-1" k3="1"/>
<feColorMatrix type="matrix" values="0 0 0 0 0.129167 0 0 0 0 0.0236806 0 0 0 0 0.0236806 0 0 0 1 0"/>
<feBlend mode="normal" in2="effect1_innerShadow_692_1030" result="effect2_innerShadow_692_1030"/>
</filter>
<linearGradient id="paint0_linear_692_1030" x1="80.5" y1="0" x2="80.5" y2="60" gradientUnits="userSpaceOnUse">
<stop stop-color="#FA6800"/>
<stop offset="1" stop-color="#1F324E"/>
</linearGradient>
</defs>
</svg>
