<svg width="225" height="60" viewBox="0 0 225 60" fill="none" xmlns="http://www.w3.org/2000/svg">
<rect width="225" height="60" rx="5" fill="white"/>
<g filter="url(#filter0_d_701_1047)">
<path d="M83.7256 39V31.7197H75.3174L71.4209 27.8232V23.4434L75.3174 19.5615H77.5146V26.4609H86.4502L90.2148 30.3574V35.1182L86.333 39H83.7256ZM78.54 23.0625V19.5615H86.3184L89.6875 22.9453V25.0107H83.7256V23.0625H78.54ZM71.4209 33.1699H77.8955V35.4844H82.7002V39H74.6875L71.4209 35.1182V33.1699ZM103.728 39V27.3252H94.5139V25.3916L96.4621 23.4434H106.174L110.056 27.3252V39H103.728ZM102.702 29.9473V32.6426H99.3625V35.3672H102.702V37.0811L100.769 39H95.8176L93.2102 36.4365V32.54L95.8176 29.9473H102.702ZM116.669 23.4434H119.262V28.9365H126.645L130.014 32.335V35.3672L126.396 39H123.539V33.126H116.537L113.168 29.8887V26.9297L116.669 23.4434ZM119.643 36.1436H122.514V39L115.849 38.9854L113.154 35.792V34.5469H119.643V36.1436ZM123.539 26.2998H120.287V23.4434H127.172L129.487 25.7578V27.5156H123.539V26.2998ZM136.247 23.4434H138.839V28.9365H146.222L149.591 32.335V35.3672L145.973 39H143.117V33.126H136.115L132.746 29.8887V26.9297L136.247 23.4434ZM139.22 36.1436H142.091V39L135.426 38.9854L132.731 35.792V34.5469H139.22V36.1436ZM143.117 26.2998H139.865V23.4434H146.75L149.064 25.7578V27.5156H143.117V26.2998Z" fill="#CC6699"/>
</g>
<g filter="url(#filter1_ii_701_1047)">
<path d="M10 10C10 7.23858 12.2386 5 15 5H55C57.7614 5 60 7.23858 60 10V50C60 52.7614 57.7614 55 55 55H15C12.2386 55 10 52.7614 10 50V10Z" fill="white"/>
</g>
<path d="M48.7171 31.7106C47.4805 31.7122 46.2606 31.995 45.1494 32.5375C44.8015 31.9602 44.5328 31.3386 44.3506 30.6897C44.246 30.181 44.2218 29.659 44.2789 29.1428C44.3991 28.5748 44.5551 28.0149 44.7458 27.4666C44.7388 27.3948 44.66 27.0559 43.8683 27.0447C43.0766 27.0334 42.3946 27.1951 42.3214 27.4047C42.1839 27.7874 42.0735 28.1793 41.991 28.5775C41.3357 30.194 40.5292 31.745 39.5821 33.2097C39.0514 32.3398 38.8332 31.315 38.9633 30.3044C39.0835 29.7364 39.2394 29.1765 39.4302 28.6281C39.4232 28.5564 39.3444 28.2175 38.5527 28.2062C37.761 28.195 37.0789 28.3567 37.0058 28.5662C36.9327 28.7758 36.8399 29.2694 36.6753 29.7391C36.5108 30.2087 34.5899 34.5006 34.0864 35.6073C33.8277 36.1698 33.6041 36.6283 33.4466 36.9376C33.4391 36.9577 33.4297 36.9771 33.4185 36.9953C33.2778 37.2611 33.2033 37.4059 33.2033 37.4059V37.413C33.095 37.607 32.9797 37.787 32.9221 37.787C32.8215 37.3853 32.8263 36.9643 32.9361 36.565C33.2174 35.0758 33.9064 32.7611 33.8994 32.6809C33.8994 32.6373 34.0288 32.2352 33.4536 32.027C33.3202 31.9635 33.1704 31.943 33.0249 31.9682C32.8793 31.9934 32.7451 32.063 32.6408 32.1676C32.5902 32.1676 32.555 32.29 32.555 32.29C32.555 32.29 33.1808 29.687 31.3611 29.687C30.6525 29.8296 29.9795 30.1124 29.3818 30.5188C28.7841 30.9253 28.2737 31.4471 27.8807 32.0537C27.3913 32.3195 26.3492 32.8876 25.2341 33.4994C24.8122 33.737 24.3706 33.9747 23.9614 34.2025C23.9333 34.1744 23.9038 34.1378 23.8756 34.1097C21.6608 31.75 17.5897 30.085 17.7655 26.928C17.8302 25.7776 18.2253 22.757 25.5828 19.0881C31.6382 16.1041 36.4574 16.9309 37.2913 18.7647C38.4852 21.3831 34.7094 26.2445 28.453 26.9491C27.7608 27.0895 27.046 27.0725 26.3613 26.8995C25.6766 26.7264 25.0395 26.4016 24.4972 25.9492C24.1667 25.5892 24.1161 25.5681 23.9938 25.6398C23.7927 25.7481 23.9221 26.0716 23.9938 26.2586C24.2324 26.6905 24.5553 27.0702 24.9432 27.3753C25.3311 27.6803 25.7762 27.9046 26.2522 28.0347C28.7135 28.5666 31.2796 28.3122 33.5886 27.3076C37.3855 25.8409 40.3386 21.7628 39.4724 18.347C38.6019 14.8806 32.8489 13.7373 27.4039 15.6751C23.9934 16.8228 20.8421 18.6304 18.1297 20.995C15.1302 23.8005 14.6563 26.2375 14.8503 27.2598C15.5535 30.8851 20.5471 33.2434 22.5453 34.9942C22.4441 35.0519 22.3513 35.1025 22.2725 35.1447C21.2727 35.6411 17.4617 37.6337 16.5069 39.7403C15.4283 42.1309 16.6799 43.8395 17.5067 44.0701C18.7527 44.3684 20.0607 44.2702 21.2481 43.7891C22.4355 43.3081 23.4431 42.4683 24.1302 41.387C24.7153 40.4901 25.0749 39.4651 25.1785 38.3993C25.2821 37.3335 25.1265 36.2584 24.725 35.2656C24.7182 35.2496 24.7087 35.2348 24.6969 35.222L25.4802 34.7622C25.9907 34.4598 26.4941 34.18 26.9258 33.9494C26.6331 34.7937 26.4612 35.6753 26.4153 36.5678C26.3159 37.9358 26.7346 39.2911 27.5881 40.3647C27.718 40.4765 27.8688 40.5614 28.0318 40.6145C28.1947 40.6676 28.3665 40.6879 28.5374 40.6741C29.3811 40.6741 29.7678 39.9709 30.1911 39.1356C30.7086 38.1147 31.1755 36.9278 31.1755 36.9278C31.1755 36.9278 30.5933 40.1355 32.1753 40.1355C32.7505 40.1355 33.3327 39.3873 33.5928 39.0105V39.0175C33.5928 39.0175 33.6069 38.9964 33.6364 38.9458L33.7292 38.7953V38.7812C33.9599 38.3791 34.4774 37.465 35.2466 35.9476C36.2394 33.9916 37.1956 31.5461 37.1956 31.5461C37.2879 32.0835 37.4152 32.6143 37.5767 33.1351C37.8084 33.7665 38.0823 34.3815 38.3966 34.9759C38.166 35.2994 38.0225 35.4794 38.0225 35.4794L38.0296 35.4864C37.8425 35.7311 37.6414 35.9969 37.4178 36.2556C36.7526 36.987 36.1354 37.7606 35.57 38.5717C35.486 38.7079 35.4572 38.8711 35.4893 39.0279C35.5214 39.1847 35.6122 39.3233 35.743 39.4155C36.039 39.5695 36.3765 39.6252 36.7063 39.5744C37.2033 39.5463 37.692 39.4346 38.1519 39.2439C38.5963 39.0875 39.0155 38.8672 39.3964 38.59C39.7891 38.318 40.1052 37.9495 40.3143 37.52C40.5234 37.0904 40.6184 36.6144 40.5903 36.1375C40.5461 35.5368 40.3927 34.9492 40.1375 34.4036C40.2092 34.3023 40.2781 34.2025 40.3456 34.1012C41.1452 32.9079 41.8658 31.6635 42.5028 30.3761C42.5951 30.9135 42.7224 31.4443 42.8839 31.9651C43.075 32.5107 43.3101 33.0398 43.5871 33.5472C42.6673 34.2548 41.9428 35.185 41.4819 36.25C41.0291 37.5592 41.3806 38.1484 42.0444 38.2848C42.4076 38.3099 42.7708 38.2355 43.0949 38.0697C43.5714 37.9131 44.0203 37.6824 44.4252 37.3862C44.8521 37.1343 45.2096 36.7802 45.4656 36.3558C45.7217 35.9314 45.8681 35.4499 45.8919 34.9548C45.86 34.4606 45.7484 33.9748 45.5614 33.5162C46.7752 33.0421 48.0912 32.8909 49.3808 33.0775C52.8036 33.4797 53.48 35.6158 53.3507 36.5158C53.29 36.8348 53.1617 37.1372 52.9744 37.4026C52.7872 37.6679 52.5453 37.8901 52.265 38.0542C52.0274 38.2047 51.9486 38.2553 51.9697 38.3636C51.9978 38.5225 52.1103 38.5141 52.3142 38.4859C52.8301 38.3256 53.2853 38.0126 53.6197 37.5884C53.9541 37.1641 54.152 36.6484 54.1874 36.1094C54.2956 34 52.2819 31.6867 48.7213 31.7078L48.7171 31.7106ZM22.3077 40.6094C21.1714 41.8469 19.5894 42.3137 18.906 41.9186C18.1719 41.4967 18.4602 39.6686 19.8552 38.358C20.6827 37.6131 21.5771 36.946 22.5271 36.3653C22.693 36.2641 22.9377 36.1206 23.2302 35.9434L23.3089 35.8998L23.4819 35.7916C23.7311 36.6266 23.7537 37.5129 23.5474 38.3595C23.341 39.2062 22.9132 39.9827 22.3077 40.6094V40.6094ZM30.5778 34.9844C30.1827 35.9476 29.3558 38.4156 28.8524 38.2778C28.4207 38.1625 28.1492 36.2922 28.7666 34.4444C29.0783 33.5548 29.5323 32.7218 30.111 31.9778C30.7297 31.2873 31.4131 31.0567 31.5777 31.338C31.4276 32.5964 31.0906 33.8254 30.5778 34.9844V34.9844ZM37.4024 38.2497C37.2364 38.3355 37.0789 38.3903 37.0072 38.3509C36.9566 38.3228 37.0789 38.2103 37.0789 38.2103C37.0789 38.2103 37.9353 37.2892 38.2728 36.873C38.4669 36.6283 38.6947 36.3414 38.9422 36.0166V36.1094C38.9422 37.2091 37.8777 37.9502 37.4038 38.2525L37.4024 38.2497ZM42.6674 37.0487C42.545 36.963 42.5661 36.6747 42.9767 35.7761C43.2623 35.199 43.6611 34.6853 44.1496 34.2658C44.2244 34.4786 44.2634 34.7025 44.2649 34.9281C44.2704 35.4084 44.1168 35.877 43.8281 36.2609C43.5394 36.6447 43.1318 36.9223 42.6688 37.0501L42.6674 37.0487Z" fill="#CD6799"/>
<defs>
<filter id="filter0_d_701_1047" x="71.4209" y="19.5615" width="80.1704" height="21.4385" filterUnits="userSpaceOnUse" color-interpolation-filters="sRGB">
<feFlood flood-opacity="0" result="BackgroundImageFix"/>
<feColorMatrix in="SourceAlpha" type="matrix" values="0 0 0 0 0 0 0 0 0 0 0 0 0 0 0 0 0 0 127 0" result="hardAlpha"/>
<feOffset dx="1" dy="1"/>
<feGaussianBlur stdDeviation="0.5"/>
<feComposite in2="hardAlpha" operator="out"/>
<feColorMatrix type="matrix" values="0 0 0 0 0 0 0 0 0 0 0 0 0 0 0 0 0 0 0.5 0"/>
<feBlend mode="normal" in2="BackgroundImageFix" result="effect1_dropShadow_701_1047"/>
<feBlend mode="normal" in="SourceGraphic" in2="effect1_dropShadow_701_1047" result="shape"/>
</filter>
<filter id="filter1_ii_701_1047" x="9" y="4" width="51" height="51" filterUnits="userSpaceOnUse" color-interpolation-filters="sRGB">
<feFlood flood-opacity="0" result="BackgroundImageFix"/>
<feBlend mode="normal" in="SourceGraphic" in2="BackgroundImageFix" result="shape"/>
<feColorMatrix in="SourceAlpha" type="matrix" values="0 0 0 0 0 0 0 0 0 0 0 0 0 0 0 0 0 0 127 0" result="hardAlpha"/>
<feOffset/>
<feGaussianBlur stdDeviation="0.5"/>
<feComposite in2="hardAlpha" operator="arithmetic" k2="-1" k3="1"/>
<feColorMatrix type="matrix" values="0 0 0 0 0.129412 0 0 0 0 0.0235294 0 0 0 0 0.0235294 0 0 0 0.5 0"/>
<feBlend mode="normal" in2="shape" result="effect1_innerShadow_701_1047"/>
<feColorMatrix in="SourceAlpha" type="matrix" values="0 0 0 0 0 0 0 0 0 0 0 0 0 0 0 0 0 0 127 0" result="hardAlpha"/>
<feOffset dx="-1" dy="-1"/>
<feGaussianBlur stdDeviation="1"/>
<feComposite in2="hardAlpha" operator="arithmetic" k2="-1" k3="1"/>
<feColorMatrix type="matrix" values="0 0 0 0 0.129167 0 0 0 0 0.0236806 0 0 0 0 0.0236806 0 0 0 1 0"/>
<feBlend mode="normal" in2="effect1_innerShadow_701_1047" result="effect2_innerShadow_701_1047"/>
</filter>
</defs>
</svg>
