<svg width="225" height="60" viewBox="0 0 225 60" fill="none" xmlns="http://www.w3.org/2000/svg">
<rect width="225" height="60" rx="5" fill="white"/>
<g filter="url(#filter0_d_701_966)">
<path d="M82.9492 39H76.6504L69.6191 19.5615H76.2256L82.9492 39ZM83.96 19.5615H90.4639L83.7402 38.4141L80.8252 29.8594L83.96 19.5615ZM104.123 39V31.7197H95.715L91.8186 27.8232V23.4434L95.715 19.5615H97.9123V26.4609H106.848L110.612 30.3574V35.1182L106.731 39H104.123ZM98.9377 23.0625V19.5615H106.716L110.085 22.9453V25.0107H104.123V23.0625H98.9377ZM91.8186 33.1699H98.2932V35.4844H103.098V39H95.0852L91.8186 35.1182V33.1699ZM128.307 39H125.729L121.833 35.1182V23.4434L125.729 19.5615H128.307V39ZM129.333 23.4434V19.5615H136.232L140.114 23.4434V27.3545H133.639V23.4434H129.333ZM129.333 39V35.1182H133.639V32.2764H140.114V35.1182L136.232 39H129.333ZM160.673 35.1182L156.791 39H152.455V35.3672H154.066V27.3252H152.455V23.4434H156.791L160.673 27.3252V35.1182ZM149.745 35.3672H151.429V39H147.079L143.197 35.1182V27.3252L147.079 23.4434H151.429V27.3252H149.745V35.3672ZM180.865 17.5107V39H174.391V17.5107H180.865ZM170.245 35.3672H173.365V37.4619L171.827 39H167.271L163.771 35.499V26.9443L167.271 23.4434H173.365V27.3252H170.245V35.3672ZM190.555 39H187.962L184.08 35.1182V27.3252L187.962 23.4434H190.555V39ZM191.58 32.7598V30.0498H194.993V27.3252H191.58V23.4434H197.073L200.955 27.3252V32.7598H191.58ZM191.58 39V35.3672H200.281V37.0518L198.348 39H191.58Z" fill="#007ACC"/>
</g>
<g filter="url(#filter1_ii_701_966)">
<path d="M10 10C10 7.23858 12.2386 5 15 5H55C57.7614 5 60 7.23858 60 10V50C60 52.7614 57.7614 55 55 55H15C12.2386 55 10 52.7614 10 50V10Z" fill="white"/>
</g>
<path d="M52.7954 14.0735L44.6869 10.1697C44.229 9.94895 43.7138 9.87609 43.2126 9.96126C42.7114 10.0464 42.2492 10.2854 41.8899 10.645L15.3469 34.8438C15.0249 35.136 14.8321 35.5442 14.811 35.9785C14.7899 36.4129 14.9422 36.8378 15.2344 37.1599C15.2696 37.1979 15.3047 37.2344 15.3427 37.2682L17.5097 39.2369C17.7929 39.4946 18.1574 39.645 18.5399 39.662C18.9224 39.6789 19.2988 39.5614 19.6037 39.3297L51.5747 15.086C51.8162 14.9027 52.1041 14.7905 52.4059 14.762C52.7077 14.7335 53.0114 14.7898 53.283 14.9245C53.5545 15.0593 53.7831 15.2671 53.9429 15.5247C54.1027 15.7823 54.1874 16.0794 54.1876 16.3825V16.2883C54.1875 15.8255 54.0569 15.3721 53.8106 14.9803C53.5643 14.5885 53.2124 14.2742 52.7954 14.0735Z" fill="#0065A9"/>
<path d="M52.7954 44.9266L44.6869 48.8317C44.2289 49.0519 43.7138 49.1244 43.2128 49.0393C42.7117 48.9541 42.2495 48.7155 41.8899 48.3564L15.3469 24.1563C15.0249 23.8641 14.8321 23.4559 14.811 23.0215C14.7899 22.5872 14.9422 22.1622 15.2344 21.8402C15.2696 21.8022 15.3047 21.7656 15.3427 21.7319L17.5097 19.7631C17.7932 19.5043 18.1585 19.3533 18.542 19.3363C18.9254 19.3194 19.3027 19.4376 19.6079 19.6703L51.5747 43.9141C51.8162 44.0973 52.1041 44.2095 52.4059 44.2381C52.7077 44.2666 53.0114 44.2103 53.283 44.0756C53.5545 43.9408 53.7831 43.7329 53.9429 43.4753C54.1027 43.2178 54.1874 42.9207 54.1876 42.6175V42.7188C54.186 43.1803 54.0547 43.6322 53.8085 44.0226C53.5623 44.413 53.2112 44.7263 52.7954 44.9266Z" fill="#007ACC"/>
<path d="M44.6869 48.8318C44.2289 49.0519 43.7138 49.1244 43.2128 49.0393C42.7117 48.9542 42.2495 48.7156 41.8899 48.3564C42.0918 48.5558 42.3481 48.691 42.6266 48.7453C42.9051 48.7996 43.1934 48.7705 43.4555 48.6616C43.7175 48.5528 43.9415 48.369 44.0996 48.1334C44.2576 47.8977 44.3426 47.6207 44.3438 47.3369V11.6632C44.344 11.3781 44.2597 11.0994 44.1014 10.8623C43.9431 10.6253 43.718 10.4405 43.4546 10.3315C43.1912 10.2224 42.9014 10.194 42.6218 10.2499C42.3423 10.3057 42.0856 10.4432 41.8843 10.645C42.2436 10.2855 42.7058 10.0465 43.2069 9.96114C43.7079 9.87573 44.2232 9.94813 44.6813 10.1683L52.7883 14.0665C53.2067 14.2661 53.56 14.58 53.8076 14.9719C54.0552 15.3638 54.1869 15.8177 54.1876 16.2813V42.7188C54.1877 43.182 54.0569 43.6358 53.8104 44.0279C53.5638 44.42 53.2115 44.7345 52.794 44.935L44.6869 48.8318Z" fill="#1F9CF0"/>
<defs>
<filter id="filter0_d_701_966" x="69.6191" y="17.5107" width="133.336" height="23.4893" filterUnits="userSpaceOnUse" color-interpolation-filters="sRGB">
<feFlood flood-opacity="0" result="BackgroundImageFix"/>
<feColorMatrix in="SourceAlpha" type="matrix" values="0 0 0 0 0 0 0 0 0 0 0 0 0 0 0 0 0 0 127 0" result="hardAlpha"/>
<feOffset dx="1" dy="1"/>
<feGaussianBlur stdDeviation="0.5"/>
<feComposite in2="hardAlpha" operator="out"/>
<feColorMatrix type="matrix" values="0 0 0 0 0 0 0 0 0 0 0 0 0 0 0 0 0 0 0.5 0"/>
<feBlend mode="normal" in2="BackgroundImageFix" result="effect1_dropShadow_701_966"/>
<feBlend mode="normal" in="SourceGraphic" in2="effect1_dropShadow_701_966" result="shape"/>
</filter>
<filter id="filter1_ii_701_966" x="9" y="4" width="51" height="51" filterUnits="userSpaceOnUse" color-interpolation-filters="sRGB">
<feFlood flood-opacity="0" result="BackgroundImageFix"/>
<feBlend mode="normal" in="SourceGraphic" in2="BackgroundImageFix" result="shape"/>
<feColorMatrix in="SourceAlpha" type="matrix" values="0 0 0 0 0 0 0 0 0 0 0 0 0 0 0 0 0 0 127 0" result="hardAlpha"/>
<feOffset/>
<feGaussianBlur stdDeviation="0.5"/>
<feComposite in2="hardAlpha" operator="arithmetic" k2="-1" k3="1"/>
<feColorMatrix type="matrix" values="0 0 0 0 0.129412 0 0 0 0 0.0235294 0 0 0 0 0.0235294 0 0 0 0.5 0"/>
<feBlend mode="normal" in2="shape" result="effect1_innerShadow_701_966"/>
<feColorMatrix in="SourceAlpha" type="matrix" values="0 0 0 0 0 0 0 0 0 0 0 0 0 0 0 0 0 0 127 0" result="hardAlpha"/>
<feOffset dx="-1" dy="-1"/>
<feGaussianBlur stdDeviation="1"/>
<feComposite in2="hardAlpha" operator="arithmetic" k2="-1" k3="1"/>
<feColorMatrix type="matrix" values="0 0 0 0 0.129167 0 0 0 0 0.0236806 0 0 0 0 0.0236806 0 0 0 1 0"/>
<feBlend mode="normal" in2="effect1_innerShadow_701_966" result="effect2_innerShadow_701_966"/>
</filter>
</defs>
</svg>
