<svg width="700" height="100" viewBox="0 0 700 100" fill="none" xmlns="http://www.w3.org/2000/svg">
<g filter="url(#filter0_d)">
<path d="M662.107 57.5472H687V66H653V34H687V41.8491H662.107V49.6981H680.929" stroke="#1F324E" stroke-width="5" stroke-linecap="square" stroke-linejoin="round"/>
<path d="M627 41.9014H605V34H627C638 36.7887 635.5 47.9437 627 49.338H605V65.1408H614V57.2394H624L629 67H638L631 55.8451" stroke="#1F324E" stroke-width="5"/>
<path d="M581.75 50.5C581.75 55.0563 578.056 58.75 573.5 58.75C568.944 58.75 565.25 55.0563 565.25 50.5C565.25 45.9437 568.944 42.25 573.5 42.25C578.056 42.25 581.75 45.9437 581.75 50.5Z" stroke="#1F324E" stroke-width="5" stroke-linecap="square" stroke-linejoin="round"/>
<path d="M590 50.5C590 59.6127 582.613 67 573.5 67C564.387 67 557 59.6127 557 50.5C557 41.3873 564.387 34 573.5 34C582.613 34 590 41.3873 590 50.5Z" stroke="#1F324E" stroke-width="5" stroke-linecap="square" stroke-linejoin="round"/>
<path d="M510 46.8V34H518.381V46.8H532.857V34H542V66H532.857V54H510V66H518.381V60.4" stroke="#1F324E" stroke-width="5"/>
<path d="M488.053 42.32H495V34H459V42.32H472.263V66H479.842V42.32" stroke="#1F324E" stroke-width="5" stroke-linecap="square" stroke-linejoin="round"/>
<path d="M429.19 56L434.62 66H444L429.19 41L414.38 66H405L423.266 34" stroke="#1F324E" stroke-width="5" stroke-linecap="square" stroke-linejoin="round"/>
<path d="M379 41.9014H357V34H379C390 36.7887 387.5 47.9437 379 49.338H357V65.1408H366V57.2394H376L381 67H390L383 55.8451" stroke="#1F324E" stroke-width="5"/>
</g>
<g filter="url(#filter1_d)">
<path d="M290.053 42.32H297V34H261V42.32H274.263V66H281.842V42.32" stroke="#1F324E" stroke-width="5" stroke-linecap="square" stroke-linejoin="round"/>
<path d="M231.19 56L236.62 66H246L231.19 41L216.38 66H207L225.266 34" stroke="#1F324E" stroke-width="5" stroke-linecap="square" stroke-linejoin="round"/>
<path d="M167.553 55.9429V66H160V50.4571H186.016C193.569 46.8 194.409 37.6571 186.016 34H160V42.2286H184.338" stroke="#1F324E" stroke-width="5"/>
<path d="M116 66H142V57.5H116V34H124V50.5" stroke="#1F324E" stroke-width="5" stroke-linecap="square" stroke-linejoin="round"/>
<path d="M86.1899 56L91.6203 66H101L86.1899 41L71.3797 66H62L80.2658 34" stroke="#1F324E" stroke-width="5" stroke-linecap="square" stroke-linejoin="round"/>
<path d="M20.927 49.5V58.5H33.8083C40.249 55.5 40.249 44.5 33.8083 42H13V66H33.8083C51.6441 63 51.1486 36 33.8083 34H13" stroke="#1F324E" stroke-width="5" stroke-linecap="square" stroke-linejoin="round"/>
</g>
<defs>
<filter id="filter0_d" x="354.5" y="29.5895" width="341" height="44.9105" filterUnits="userSpaceOnUse" color-interpolation-filters="sRGB">
<feFlood flood-opacity="0" result="BackgroundImageFix"/>
<feColorMatrix in="SourceAlpha" type="matrix" values="0 0 0 0 0 0 0 0 0 0 0 0 0 0 0 0 0 0 127 0" result="hardAlpha"/>
<feOffset dx="3" dy="2"/>
<feGaussianBlur stdDeviation="1.5"/>
<feColorMatrix type="matrix" values="0 0 0 0 0 0 0 0 0 0 0 0 0 0 0 0 0 0 0.5 0"/>
<feBlend mode="normal" in2="BackgroundImageFix" result="effect1_dropShadow"/>
<feBlend mode="normal" in="SourceGraphic" in2="effect1_dropShadow" result="shape"/>
</filter>
<filter id="filter1_d" x="9.5" y="29.5895" width="295" height="43.9105" filterUnits="userSpaceOnUse" color-interpolation-filters="sRGB">
<feFlood flood-opacity="0" result="BackgroundImageFix"/>
<feColorMatrix in="SourceAlpha" type="matrix" values="0 0 0 0 0 0 0 0 0 0 0 0 0 0 0 0 0 0 127 0" result="hardAlpha"/>
<feOffset dx="2" dy="2"/>
<feGaussianBlur stdDeviation="1.5"/>
<feColorMatrix type="matrix" values="0 0 0 0 0 0 0 0 0 0 0 0 0 0 0 0 0 0 0.5 0"/>
<feBlend mode="normal" in2="BackgroundImageFix" result="effect1_dropShadow"/>
<feBlend mode="normal" in="SourceGraphic" in2="effect1_dropShadow" result="shape"/>
</filter>
</defs>
</svg>
