<svg width="65" height="50" viewBox="0 0 65 50" fill="none" xmlns="http://www.w3.org/2000/svg">
<g clip-path="url(#clip0_404_395)" filter="url(#filter0_d_404_395)">
<rect width="55" height="40" transform="translate(5 5)" fill="#FDFDFD"/>
<path d="M22.0182 39.85C19.7182 39.85 17.7348 39.4667 16.0682 38.7C14.4348 37.9 13.0848 36.85 12.0182 35.55C10.9515 34.2167 10.1515 32.7333 9.61816 31.1C9.11816 29.4333 8.86816 27.75 8.86816 26.05V25.35C8.86816 23.65 9.13483 21.9833 9.66816 20.35C10.2015 18.7167 10.9848 17.25 12.0182 15.95C13.0848 14.65 14.4182 13.6167 16.0182 12.85C17.6515 12.05 19.5515 11.65 21.7182 11.65C24.4848 11.65 26.7848 12.2667 28.6182 13.5C30.4848 14.7 31.8848 16.2833 32.8182 18.25C33.7515 20.1833 34.2182 22.2333 34.2182 24.4V26.35H12.4682C12.5348 28.25 12.9182 29.9833 13.6182 31.55C14.3182 33.0833 15.3682 34.3 16.7682 35.2C18.1682 36.1 19.9182 36.55 22.0182 36.55C24.3182 36.55 26.1848 36.0333 27.6182 35C29.0515 33.9667 29.9348 32.7167 30.2682 31.25H33.7682C33.2348 33.8833 31.9182 35.9833 29.8182 37.55C27.7515 39.0833 25.1515 39.85 22.0182 39.85ZM21.7182 14.95C19.0182 14.95 16.9015 15.75 15.3682 17.35C13.8682 18.95 12.9515 20.9833 12.6182 23.45H30.5682C30.3348 20.9167 29.4682 18.8667 27.9682 17.3C26.4682 15.7333 24.3848 14.95 21.7182 14.95ZM34.1381 39L43.5881 25.55L34.7381 12.55H38.8381L45.8381 22.95H46.5381L53.1881 12.55H57.0381L48.7381 25.2L58.6881 39H54.5881L46.4881 27.75H45.8381L37.9881 39H34.1381Z" fill="black"/>
</g>
<defs>
<filter id="filter0_d_404_395" x="0" y="0" width="65" height="50" filterUnits="userSpaceOnUse" color-interpolation-filters="sRGB">
<feFlood flood-opacity="0" result="BackgroundImageFix"/>
<feColorMatrix in="SourceAlpha" type="matrix" values="0 0 0 0 0 0 0 0 0 0 0 0 0 0 0 0 0 0 127 0" result="hardAlpha"/>
<feOffset/>
<feGaussianBlur stdDeviation="2.5"/>
<feComposite in2="hardAlpha" operator="out"/>
<feColorMatrix type="matrix" values="0 0 0 0 0 0 0 0 0 0 0 0 0 0 0 0 0 0 0.25 0"/>
<feBlend mode="normal" in2="BackgroundImageFix" result="effect1_dropShadow_404_395"/>
<feBlend mode="normal" in="SourceGraphic" in2="effect1_dropShadow_404_395" result="shape"/>
</filter>
<clipPath id="clip0_404_395">
<rect width="55" height="40" fill="white" transform="translate(5 5)"/>
</clipPath>
</defs>
</svg>
