<svg width="65" height="50" viewBox="0 0 65 50" fill="none" xmlns="http://www.w3.org/2000/svg">
<path d="M65 0H0V50H65V0Z" fill="#FDFDFD"/>
<path d="M21.15 39.2C18.85 39.2 16.8666 38.8167 15.2 38.05C13.5666 37.25 12.2166 36.2 11.15 34.9C10.0833 33.5667 9.28334 32.0833 8.75 30.45C8.25 28.7833 8 27.1 8 25.4V24.7C8 23 8.26667 21.3333 8.8 19.7C9.33334 18.0667 10.1166 16.6 11.15 15.3C12.2166 14 13.55 12.9667 15.15 12.2C16.7833 11.4 18.6833 11 20.85 11C23.6166 11 25.9166 11.6167 27.75 12.85C29.6166 14.05 31.0166 15.6333 31.95 17.6C32.8833 19.5333 33.35 21.5833 33.35 23.75V25.7H11.6C11.6666 27.6 12.05 29.3333 12.75 30.9C13.45 32.4333 14.5 33.65 15.9 34.55C17.3 35.45 19.05 35.9 21.15 35.9C23.45 35.9 25.3166 35.3833 26.75 34.35C28.1833 33.3167 29.0666 32.0667 29.4 30.6H32.9C32.3666 33.2333 31.05 35.3333 28.95 36.9C26.8833 38.4333 24.2833 39.2 21.15 39.2ZM20.85 14.3C18.15 14.3 16.0333 15.1 14.5 16.7C13 18.3 12.0833 20.3333 11.75 22.8H29.7C29.4666 20.2667 28.6 18.2167 27.1 16.65C25.6 15.0833 23.5166 14.3 20.85 14.3ZM33.2699 38.35L42.7199 24.9L33.8699 11.9H37.9699L44.9699 22.3H45.6699L52.3199 11.9H56.1699L47.8699 24.55L57.8199 38.35H53.7199L45.6199 27.1H44.9699L37.1199 38.35H33.2699Z" fill="black"/>
</svg>
