<svg width="150" height="38" viewBox="0 0 150 38" fill="none" xmlns="http://www.w3.org/2000/svg">
<g clip-path="url(#clip0_402:382)">
<path d="M11.21 3.89159C9.72938 2.15294 8.46614 0.387122 8.20806 0.0203748C8.1809 -0.00679161 8.14015 -0.00679161 8.11298 0.0203748C7.8549 0.387122 6.59166 2.15294 5.12467 3.89159C-7.46696 19.9333 7.10782 30.7456 7.10782 30.7456L7.23007 30.8271C7.33873 32.4978 7.6104 34.902 7.6104 34.902H8.15373H8.69706C8.69706 34.902 8.96871 32.5114 9.07739 30.8271L9.19963 30.732C9.21321 30.7456 23.8016 19.9333 11.21 3.89159ZM8.16731 30.5147C8.16731 30.5147 7.51532 29.9577 7.33873 29.6725V29.6453L8.12656 12.1774C8.12656 12.1231 8.20806 12.1231 8.20806 12.1774L8.99589 29.6453V29.6725C8.8193 29.9577 8.16731 30.5147 8.16731 30.5147Z" fill="#12654D"/>
<path d="M35.3881 26.9424L29.3436 12.191L29.33 12.1503H24.6167V13.142H25.3773C25.6082 13.142 25.8255 13.237 25.9885 13.4C26.1515 13.563 26.233 13.7803 26.233 14.0112L26.0972 28.8577C26.0972 29.3195 25.7169 29.6998 25.255 29.7134L24.4808 29.727V30.7051H29.0719V29.727L28.5965 29.7134C28.1347 29.6998 27.7544 29.3195 27.7544 28.8577V14.867L34.3422 30.6914C34.4373 30.9224 34.6546 31.0718 34.8991 31.0718C35.1436 31.0718 35.3609 30.9224 35.456 30.6914L41.908 15.2065L42.0031 28.8441C42.0031 29.3195 41.6228 29.6998 41.1474 29.7134H40.6584V30.6914H46.051V29.7134H45.3174C44.8556 29.7134 44.4752 29.3195 44.4617 28.8577L44.4209 14.0112C44.4209 13.5359 44.8012 13.1555 45.263 13.142L46.051 13.1284V12.1367H41.4598L35.3881 26.9424Z" fill="#086449"/>
<path d="M77.7134 29.4823C77.564 29.3328 77.4825 29.1291 77.4825 28.8846V21.6041C77.4825 20.2185 77.075 19.1319 76.26 18.3577C75.4585 17.5834 74.3448 17.1895 72.9593 17.1895C71.0169 17.1895 69.4819 17.9774 68.4089 19.5258C68.3953 19.553 68.3546 19.5665 68.3138 19.5665C68.2731 19.5665 68.2459 19.5394 68.2459 19.4986L67.7433 17.5562H66.9012L64.7415 18.7923V19.4715H65.2983C65.5564 19.4715 65.7737 19.5394 65.9231 19.6752C66.0726 19.811 66.1541 20.0148 66.1541 20.3V28.871C66.1541 29.1155 66.0726 29.3193 65.9231 29.4687C65.7737 29.6181 65.57 29.6996 65.3255 29.6996H64.7822V30.6912H69.7537V29.6996H69.2103C68.9658 29.6996 68.762 29.6181 68.6126 29.4687C68.4632 29.3193 68.3817 29.1155 68.3817 28.871V23.2204C68.3817 22.5005 68.5447 21.7806 68.8435 21.0743C69.1559 20.3815 69.6179 19.7974 70.2291 19.3492C70.8403 18.901 71.5738 18.6837 72.4159 18.6837C73.3668 18.6837 74.0867 18.9825 74.5349 19.5801C74.9831 20.1778 75.214 20.9521 75.214 21.8757V28.8846C75.214 29.1291 75.1326 29.3328 74.9831 29.4823C74.8337 29.6317 74.63 29.7132 74.3855 29.7132H73.8422V30.7048H78.8137V29.7132H78.2703C78.0665 29.7132 77.8628 29.6452 77.7134 29.4823Z" fill="#086449"/>
<path d="M123.312 13.2643C121.926 12.5307 120.378 12.1504 118.708 12.1504H112.188V13.142H112.826C113.07 13.142 113.288 13.2371 113.505 13.4544C113.709 13.6582 113.818 13.8891 113.818 14.1336V28.7491C113.818 28.9936 113.709 29.2245 113.505 29.4283C113.301 29.632 113.07 29.7407 112.826 29.7407H112.188V30.7322H118.708C120.378 30.7322 121.926 30.3519 123.312 29.6184C124.697 28.885 125.825 27.7982 126.64 26.4128C127.455 25.0274 127.876 23.3566 127.876 21.4549C127.876 19.5533 127.455 17.8961 126.64 16.4971C125.825 15.0844 124.711 13.9978 123.312 13.2643ZM125.268 21.4277C125.268 23.1664 124.956 24.6333 124.344 25.8152C123.733 26.9969 122.919 27.8798 121.913 28.4503C120.908 29.0208 119.795 29.306 118.599 29.306H117.281C117.037 29.306 116.819 29.2109 116.602 28.9936C116.398 28.7899 116.29 28.559 116.29 28.3145V14.5411C116.29 14.2966 116.385 14.0792 116.602 13.8619C116.806 13.6582 117.037 13.5495 117.281 13.5495H118.599C119.795 13.5495 120.908 13.8348 121.913 14.4052C122.919 14.9757 123.733 15.8587 124.344 17.0404C124.956 18.2221 125.268 19.6891 125.268 21.4277Z" fill="#045941"/>
<path d="M143.238 22.4057C142.641 21.713 141.487 21.1288 140.128 20.8164C142.003 19.8792 142.967 18.5616 142.967 16.8637C142.967 15.9401 142.722 15.1114 142.233 14.4051C141.744 13.6988 141.052 13.1284 140.168 12.7345C139.286 12.3405 138.254 12.1367 137.086 12.1367H129.764V13.1284H130.349C130.593 13.1284 130.811 13.2235 131.028 13.4408C131.231 13.6445 131.34 13.8754 131.34 14.1199V28.7355C131.34 28.9799 131.231 29.2109 131.028 29.4146C130.824 29.6183 130.593 29.727 130.349 29.727H129.71V30.7185H137.656C138.865 30.7185 139.993 30.5148 141.011 30.1073C142.03 29.6998 142.845 29.1022 143.428 28.3144C144.027 27.5265 144.326 26.5621 144.326 25.4483C144.326 24.2529 143.959 23.2478 143.238 22.4057ZM134.138 28.9935C133.935 28.7898 133.826 28.5589 133.826 28.3144V21.7537H137.602C138.933 21.7537 139.951 22.0933 140.657 22.7724C141.364 23.4516 141.717 24.3344 141.717 25.4212C141.717 26.0731 141.554 26.7115 141.255 27.2956C140.943 27.8933 140.481 28.3687 139.857 28.7355C139.245 29.1022 138.484 29.2923 137.602 29.2923H134.817C134.559 29.3059 134.342 29.2109 134.138 28.9935ZM133.826 20.3546V14.5274C133.826 14.2829 133.92 14.0656 134.138 13.8483C134.342 13.6445 134.572 13.5359 134.817 13.5359H136.61C137.901 13.5359 138.852 13.8618 139.449 14.4866C140.047 15.125 140.346 15.9401 140.346 16.9452C140.346 17.9775 140.06 18.8062 139.504 19.431C138.946 20.0422 138.104 20.3546 136.99 20.3546H133.826Z" fill="#045941"/>
<path d="M58.7648 18.0724C57.7188 17.5019 56.5507 17.2031 55.2874 17.2031C54.0242 17.2031 52.8425 17.4884 51.8101 18.0724C50.7643 18.643 49.9357 19.4716 49.3244 20.5174C48.7132 21.5634 48.4008 22.7858 48.4008 24.1441C48.4008 25.5025 48.7132 26.7249 49.3244 27.7709C49.9357 28.8168 50.7643 29.6453 51.8101 30.2158C52.8561 30.7864 54.0242 31.0852 55.2874 31.0852C56.5507 31.0852 57.7324 30.8 58.7648 30.2158C59.8107 29.6453 60.6392 28.8168 61.2504 27.7709C61.8618 26.7249 62.1742 25.5025 62.1742 24.1441C62.1742 22.7858 61.8618 21.5634 61.2504 20.5174C60.6392 19.458 59.7971 18.643 58.7648 18.0724ZM59.7699 24.1441C59.7699 25.8149 59.3624 27.1732 58.5474 28.1512C57.746 29.1292 56.6458 29.6317 55.2874 29.6317C53.9291 29.6317 52.8289 29.1292 52.0274 28.1512C51.2125 27.1732 50.805 25.8149 50.805 24.1441C50.805 22.4734 51.2125 21.1151 52.0274 20.1371C52.8289 19.1591 53.9291 18.6566 55.2874 18.6566C56.6458 18.6566 57.746 19.1591 58.5474 20.1371C59.3624 21.1151 59.7699 22.4599 59.7699 24.1441Z" fill="#086449"/>
<path d="M106.7 18.0724C105.654 17.5019 104.486 17.2031 103.223 17.2031C101.959 17.2031 100.778 17.4884 99.7453 18.0724C98.6994 18.643 97.8708 19.4716 97.2596 20.5174C96.6483 21.5634 96.3359 22.7858 96.3359 24.1441C96.3359 25.5025 96.6483 26.7249 97.2596 27.7709C97.8708 28.8168 98.6994 29.6453 99.7453 30.2158C100.791 30.7864 101.959 31.0852 103.223 31.0852C104.486 31.0852 105.668 30.8 106.7 30.2158C107.746 29.6453 108.574 28.8168 109.186 27.7709C109.797 26.7249 110.109 25.5025 110.109 24.1441C110.109 22.7858 109.797 21.5634 109.186 20.5174C108.574 19.458 107.746 18.643 106.7 18.0724ZM107.705 24.1441C107.705 25.8149 107.298 27.1732 106.483 28.1512C105.681 29.1292 104.581 29.6317 103.223 29.6317C101.864 29.6317 100.764 29.1292 99.9626 28.1512C99.1477 27.1732 98.7402 25.8149 98.7402 24.1441C98.7402 22.4599 99.1477 21.1151 99.9626 20.1371C100.764 19.1591 101.864 18.6566 103.223 18.6566C104.581 18.6566 105.681 19.1591 106.483 20.1371C107.298 21.1151 107.705 22.4599 107.705 24.1441Z" fill="#086449"/>
<path d="M87.3574 17.2031C86.2708 17.2031 85.2791 17.434 84.3827 17.8958C83.4862 18.3577 82.7799 18.9826 82.2772 19.784C81.7747 20.5717 81.5166 21.4546 81.5166 22.3919C81.5166 23.2341 81.7068 24.0083 82.1007 24.7011C82.4811 25.3667 82.9972 25.9236 83.6492 26.3854L81.7068 29.0205C81.4623 29.3465 81.4351 29.7812 81.6117 30.1343C81.8018 30.501 82.155 30.7185 82.5626 30.7185H83.1195C82.5762 31.0852 82.1414 31.5199 81.8426 32.036C81.4894 32.6201 81.3129 33.2313 81.3129 33.8562C81.3129 35.0243 81.829 35.9887 82.8478 36.7087C83.8529 37.4286 85.2655 37.7953 87.045 37.7953C88.281 37.7953 89.4628 37.5916 90.5359 37.1977C91.6226 36.8038 92.5055 36.2196 93.1574 35.459C93.823 34.6983 94.1625 33.7747 94.1625 32.7151C94.1625 31.6014 93.7551 30.8136 92.8043 30.0528C91.9893 29.4144 90.7124 29.0749 89.1233 29.0749H83.6899C83.6764 29.0749 83.6628 29.0613 83.6628 29.0613C83.6628 29.0613 83.6492 29.0341 83.6628 29.0205L85.0754 27.1188C85.4557 27.2954 85.809 27.4041 86.1214 27.472C86.4474 27.54 86.8141 27.5672 87.2216 27.5672C88.3625 27.5672 89.3949 27.3362 90.2914 26.8743C91.1878 26.4125 91.9078 25.7877 92.424 24.9864C92.9401 24.1984 93.1982 23.3156 93.1982 22.3784C93.1982 21.3731 92.7092 19.5395 91.378 18.6023C91.378 18.5887 91.3916 18.5887 91.3916 18.5887L94.312 18.9147V17.5699H89.6394C88.9059 17.3254 88.1316 17.2031 87.3574 17.2031ZM88.9874 25.7062C88.4712 25.9779 87.9143 26.1273 87.3574 26.1273C86.4474 26.1273 85.646 25.8013 84.9667 25.1629C84.2876 24.5245 83.948 23.5872 83.948 22.3919C83.948 21.1966 84.2876 20.2593 84.9667 19.621C85.646 18.9826 86.4474 18.6566 87.3574 18.6566C87.9279 18.6566 88.4712 18.7924 88.9874 19.0777C89.5036 19.3493 89.9246 19.7704 90.2642 20.3273C90.5902 20.8841 90.7668 21.577 90.7668 22.3919C90.7668 23.2205 90.6038 23.9132 90.2642 24.4565C89.9246 25.0135 89.5036 25.421 88.9874 25.7062ZM85.2927 30.7049H88.9738C89.9925 30.7049 90.6445 30.9086 91.0792 31.3433C91.5138 31.7779 91.7313 32.362 91.7313 33.0411C91.7313 34.0328 91.3372 34.8477 90.5494 35.459C89.7616 36.0702 88.7022 36.3826 87.3981 36.3826C86.2572 36.3826 85.3063 36.1245 84.6136 35.6355C83.9209 35.1466 83.5677 34.3995 83.5677 33.4486C83.5677 32.851 83.7307 32.2941 84.0567 31.8051C84.3962 31.3161 84.7901 30.963 85.2927 30.7049Z" fill="#086449"/>
<path d="M147.097 30.542C146.825 30.3926 146.621 30.1752 146.458 29.9172C146.309 29.6455 146.228 29.3602 146.228 29.0478C146.228 28.7354 146.309 28.4365 146.458 28.1785C146.608 27.9068 146.825 27.7031 147.097 27.5537C147.368 27.4042 147.667 27.3228 148.006 27.3228C148.346 27.3228 148.645 27.4042 148.917 27.5537C149.189 27.7031 149.392 27.9204 149.555 28.1785C149.705 28.4501 149.786 28.7354 149.786 29.0478C149.786 29.3602 149.705 29.6591 149.555 29.9172C149.406 30.1888 149.189 30.3926 148.917 30.542C148.645 30.6914 148.346 30.7729 148.006 30.7729C147.667 30.7729 147.368 30.6914 147.097 30.542ZM148.767 30.3382C148.998 30.216 149.161 30.0258 149.297 29.8085C149.419 29.5776 149.487 29.3194 149.487 29.0342C149.487 28.7489 149.419 28.4909 149.297 28.26C149.174 28.0291 148.998 27.8525 148.767 27.7302C148.537 27.608 148.292 27.5401 148.006 27.5401C147.722 27.5401 147.477 27.608 147.246 27.7302C147.015 27.8525 146.852 28.0426 146.717 28.26C146.594 28.4909 146.526 28.7489 146.526 29.0342C146.526 29.3194 146.594 29.5776 146.717 29.8085C146.838 30.0394 147.015 30.216 147.246 30.3382C147.477 30.4605 147.722 30.5284 148.006 30.5284C148.292 30.5284 148.537 30.4741 148.767 30.3382ZM147.273 29.8628V29.7406L147.3 29.727H147.381C147.409 29.727 147.436 29.7134 147.45 29.6998C147.477 29.6727 147.477 29.6591 147.477 29.6319V28.3686C147.477 28.3415 147.463 28.3143 147.45 28.3007C147.423 28.2735 147.409 28.2735 147.381 28.2735H147.3L147.273 28.26V28.1377L147.3 28.1241H148.006C148.211 28.1241 148.359 28.1649 148.482 28.26C148.604 28.355 148.658 28.4773 148.658 28.6403C148.658 28.7625 148.618 28.8848 148.522 28.9663C148.428 29.0613 148.319 29.1157 148.183 29.1293L148.346 29.1836L148.658 29.6863C148.685 29.727 148.713 29.7406 148.754 29.7406H148.835L148.848 29.7542V29.8764L148.835 29.89H148.414L148.387 29.8764L147.952 29.1428H147.843V29.6319C147.843 29.6591 147.857 29.6863 147.87 29.6998C147.898 29.727 147.912 29.727 147.939 29.727H148.02L148.048 29.7406V29.8628L148.02 29.8764H147.3L147.273 29.8628ZM147.952 28.9798C148.061 28.9798 148.156 28.9527 148.211 28.8848C148.265 28.8304 148.305 28.7354 148.305 28.6267C148.305 28.518 148.278 28.4365 148.224 28.3686C148.169 28.3007 148.088 28.2735 147.993 28.2735H147.939C147.912 28.2735 147.885 28.2871 147.87 28.3007C147.843 28.3279 147.843 28.3415 147.843 28.3686V28.9798H147.952Z" fill="#0B7657"/>
</g>
<defs>
<clipPath id="clip0_402:382">
<rect width="150" height="37.7953" fill="white"/>
</clipPath>
</defs>
</svg>
