<svg width="17" height="35" viewBox="0 0 17 35" fill="none" xmlns="http://www.w3.org/2000/svg">
<path d="M11.21 3.89159C9.72938 2.15294 8.46614 0.387122 8.20806 0.0203748C8.18089 -0.00679161 8.14015 -0.00679161 8.11298 0.0203748C7.8549 0.387122 6.59166 2.15294 5.12467 3.89159C-7.46696 19.9333 7.10782 30.7456 7.10782 30.7456L7.23007 30.8271C7.33873 32.4978 7.6104 34.902 7.6104 34.902H8.15373H8.69706C8.69706 34.902 8.96871 32.5114 9.07739 30.8271L9.19963 30.732C9.21321 30.7456 23.8016 19.9333 11.21 3.89159ZM8.16731 30.5147C8.16731 30.5147 7.51532 29.9577 7.33873 29.6725V29.6453L8.12656 12.1774C8.12656 12.1231 8.20806 12.1231 8.20806 12.1774L8.99589 29.6453V29.6725C8.8193 29.9577 8.16731 30.5147 8.16731 30.5147Z" fill="#155845"/>
</svg>
