<svg width="536" height="317" viewBox="0 0 536 317" fill="none" xmlns="http://www.w3.org/2000/svg">
<rect width="536" height="317" fill="#1F324E"/>
<path d="M264.879 315.094C263.146 315.094 261.528 314.632 260.025 313.823L244.654 304.693C242.342 303.421 243.498 302.959 244.192 302.728C247.312 301.688 247.89 301.456 251.126 299.608C251.473 299.376 251.936 299.492 252.282 299.723L264.071 306.773C264.533 307.004 265.111 307.004 265.457 306.773L311.572 280.075C312.034 279.844 312.266 279.381 312.266 278.804V225.524C312.266 224.945 312.034 224.484 311.572 224.252L265.457 197.67C264.995 197.438 264.417 197.438 264.071 197.67L217.956 224.252C217.494 224.483 217.262 225.061 217.262 225.523V278.803C217.262 279.266 217.494 279.843 217.956 280.075L230.554 287.356C237.373 290.823 241.649 286.778 241.649 282.733V230.146C241.649 229.453 242.227 228.759 243.036 228.759H248.93C249.624 228.759 250.317 229.337 250.317 230.146V282.733C250.317 291.863 245.347 297.18 236.679 297.18C234.021 297.18 231.941 297.18 226.046 294.29L213.911 287.356C210.906 285.623 209.057 282.386 209.057 278.919V225.639C209.057 222.172 210.906 218.935 213.911 217.202L260.025 190.504C262.915 188.886 266.845 188.886 269.734 190.504L315.848 217.202C318.853 218.935 320.703 222.172 320.703 225.639V278.919C320.703 282.386 318.853 285.623 315.848 287.356L269.734 314.054C268.231 314.748 266.498 315.094 264.88 315.094H264.879ZM279.095 278.457C258.87 278.457 254.709 269.211 254.709 261.352C254.709 260.658 255.287 259.965 256.096 259.965H262.106C262.799 259.965 263.377 260.427 263.377 261.121C264.302 267.246 266.96 270.251 279.211 270.251C288.919 270.251 293.081 268.055 293.081 262.854C293.081 259.849 291.924 257.654 276.784 256.151C264.186 254.879 256.327 252.106 256.327 242.051C256.327 232.689 264.187 227.141 277.362 227.141C292.155 227.141 299.437 232.227 300.362 243.321C300.362 243.669 300.246 244.015 300.015 244.362C299.783 244.593 299.437 244.824 299.09 244.824H293.08C292.502 244.824 291.924 244.362 291.809 243.784C290.422 237.428 286.839 235.347 277.362 235.347C266.729 235.347 265.457 239.046 265.457 241.819C265.457 245.171 266.96 246.211 281.291 248.06C295.507 249.91 302.211 252.568 302.211 262.507C302.095 272.678 293.774 278.457 279.095 278.457Z" fill="#539E43"/>
<path d="M121.797 106.712C121.797 104.632 120.641 102.666 118.792 101.626L69.788 73.4263C68.978 72.9633 68.054 72.7322 67.13 72.6162H66.667C65.743 72.6162 64.818 72.9633 64.009 73.4263L15.005 101.626C13.155 102.666 12 104.631 12 106.712L12.116 182.529C12.116 183.569 12.694 184.609 13.618 185.072C14.543 185.65 15.698 185.65 16.508 185.072L45.633 168.429C47.482 167.389 48.638 165.424 48.638 163.344V127.862C48.638 125.782 49.793 123.817 51.643 122.777L64.009 115.611C64.934 115.033 65.974 114.801 67.014 114.801C68.054 114.801 69.094 115.033 69.904 115.611L82.27 122.777C84.12 123.817 85.275 125.781 85.275 127.862V163.344C85.275 165.424 86.431 167.389 88.28 168.429L117.405 185.072C118.33 185.65 119.485 185.65 120.41 185.072C121.335 184.609 121.913 183.569 121.913 182.529L121.797 106.712ZM357.34 2.34725C356.416 1.88425 355.26 1.88425 354.45 2.34725C353.526 2.92525 352.948 3.84925 352.948 4.88925V80.0143C352.948 80.7073 352.602 81.4003 351.908 81.8633C351.215 82.2093 350.521 82.2093 349.828 81.8633L337.577 74.8133C336.679 74.3019 335.663 74.0329 334.63 74.0329C333.596 74.0329 332.58 74.3019 331.682 74.8133L282.678 103.129C280.829 104.169 279.673 106.134 279.673 108.214V164.73C279.673 166.81 280.829 168.776 282.678 169.816L331.682 198.132C332.58 198.644 333.596 198.913 334.63 198.913C335.663 198.913 336.679 198.644 337.577 198.132L386.581 169.816C388.43 168.776 389.586 166.811 389.586 164.73V23.8442C389.586 21.6482 388.43 19.6842 386.581 18.6432L357.341 2.34725H357.34ZM352.833 146.123C352.833 146.701 352.602 147.163 352.139 147.394L335.381 157.102C335.147 157.216 334.89 157.276 334.63 157.276C334.369 157.276 334.112 157.216 333.878 157.102L317.12 147.394C316.657 147.163 316.426 146.585 316.426 146.123V126.706C316.426 126.128 316.657 125.666 317.12 125.435L333.878 115.726C334.112 115.612 334.369 115.553 334.63 115.553C334.89 115.553 335.147 115.612 335.381 115.726L352.139 125.435C352.602 125.665 352.833 126.244 352.833 126.706V146.123ZM520.417 126.244C522.267 125.204 523.307 123.239 523.307 121.158V107.405C523.307 105.325 522.151 103.36 520.417 102.32L471.76 74.1203C470.862 73.609 469.846 73.3402 468.813 73.3402C467.78 73.3402 466.764 73.609 465.866 74.1203L416.862 102.435C415.012 103.475 413.857 105.44 413.857 107.521V164.037C413.857 166.117 415.012 168.082 416.862 169.122L465.519 196.86C467.369 197.9 469.564 197.9 471.298 196.86L500.769 180.45C501.694 179.987 502.272 178.947 502.272 177.907C502.272 176.867 501.694 175.827 500.769 175.364L451.534 147.048C450.61 146.471 450.032 145.546 450.032 144.506V126.823C450.032 125.783 450.61 124.743 451.534 124.28L466.906 115.496C467.356 115.213 467.877 115.063 468.409 115.063C468.94 115.063 469.461 115.213 469.911 115.496L485.282 124.28C486.207 124.858 486.785 125.782 486.785 126.823V140.692C486.785 141.732 487.363 142.772 488.287 143.234C489.212 143.812 490.367 143.812 491.292 143.234L520.417 126.244V126.244Z" fill="white"/>
<path d="M468.062 123.586C468.234 123.473 468.434 123.413 468.64 123.413C468.845 123.413 469.046 123.473 469.217 123.586L478.579 129.018C478.926 129.248 479.157 129.595 479.157 130.058V140.922C479.157 141.384 478.926 141.731 478.579 141.962L469.217 147.394C469.046 147.507 468.845 147.567 468.64 147.567C468.434 147.567 468.234 147.507 468.062 147.394L458.7 141.962C458.353 141.731 458.122 141.384 458.122 140.922V130.058C458.122 129.595 458.353 129.248 458.7 129.018L468.062 123.586V123.586Z" fill="#539E43"/>
<mask id="mask0_401:472" style="mask-type:alpha" maskUnits="userSpaceOnUse" x="146" y="73" width="110" height="125">
<path d="M203.74 74.3513C202.842 73.8401 201.826 73.5713 200.793 73.5713C199.76 73.5713 198.744 73.8401 197.846 74.3513L149.189 102.434C147.339 103.474 146.299 105.439 146.299 107.519V163.805C146.299 165.885 147.455 167.85 149.189 168.89L197.846 196.975C198.744 197.487 199.76 197.755 200.793 197.755C201.826 197.755 202.842 197.487 203.74 196.975L252.398 168.89C254.247 167.85 255.288 165.885 255.288 163.805V107.52C255.288 105.44 254.131 103.475 252.398 102.435L203.74 74.3513Z" fill="white"/>
</mask>
<g mask="url(#mask0_401:472)">
<path d="M203.74 74.3513C202.842 73.8401 201.826 73.5713 200.793 73.5713C199.76 73.5713 198.744 73.8401 197.846 74.3513L149.189 102.434C147.339 103.474 146.299 105.439 146.299 107.519V163.805C146.299 165.885 147.455 167.85 149.189 168.89L197.846 196.975C198.744 197.487 199.76 197.755 200.793 197.755C201.826 197.755 202.842 197.487 203.74 196.975L252.398 168.89C254.247 167.85 255.288 165.885 255.288 163.805V107.52C255.288 105.44 254.131 103.475 252.398 102.435L203.74 74.3513Z" fill="url(#paint0_linear_401:472)"/>
<path d="M252.513 102.435L203.625 74.3514C203.145 74.1089 202.641 73.9152 202.122 73.7734L147.339 167.621C147.793 168.175 148.341 168.645 148.958 169.008L197.846 197.093C199.233 197.902 200.851 198.133 202.353 197.67L253.785 103.592C253.438 103.13 252.975 102.782 252.513 102.436V102.435Z" fill="url(#paint1_linear_401:472)"/>
<path fill-rule="evenodd" clip-rule="evenodd" d="M252.629 168.891C254.016 168.082 255.056 166.695 255.519 165.193L201.89 73.6574C200.503 73.4264 199 73.5414 197.73 74.3504L149.188 102.32L201.543 197.785C202.304 197.661 203.044 197.427 203.739 197.092L252.628 168.892L252.629 168.891Z" fill="url(#paint2_linear_401:472)"/>
<path fill-rule="evenodd" clip-rule="evenodd" d="M252.629 168.892L203.856 196.977C203.167 197.328 202.425 197.562 201.66 197.67L202.585 199.404L256.674 168.084V167.39L255.287 165.078C255.056 166.696 254.016 168.083 252.629 168.892V168.892Z" fill="url(#paint3_linear_401:472)"/>
<path fill-rule="evenodd" clip-rule="evenodd" d="M252.629 168.892L203.856 196.977C203.167 197.328 202.425 197.562 201.66 197.67L202.585 199.404L256.674 168.084V167.39L255.287 165.078C255.056 166.696 254.016 168.083 252.629 168.892V168.892Z" fill="url(#paint4_linear_401:472)"/>
</g>
<defs>
<linearGradient id="paint0_linear_401:472" x1="220.616" y1="95.2874" x2="167.284" y2="179.089" gradientUnits="userSpaceOnUse">
<stop stop-color="#41873F"/>
<stop offset="0.3288" stop-color="#418B3D"/>
<stop offset="0.6352" stop-color="#419637"/>
<stop offset="0.9319" stop-color="#3FA92D"/>
<stop offset="1" stop-color="#3FAE2A"/>
</linearGradient>
<linearGradient id="paint1_linear_401:472" x1="193.406" y1="142.256" x2="326.975" y2="69.6877" gradientUnits="userSpaceOnUse">
<stop offset="0.1376" stop-color="#41873F"/>
<stop offset="0.4032" stop-color="#54A044"/>
<stop offset="0.7136" stop-color="#66B848"/>
<stop offset="0.9081" stop-color="#6CC04A"/>
</linearGradient>
<linearGradient id="paint2_linear_401:472" x1="144.521" y1="135.665" x2="257.113" y2="135.665" gradientUnits="userSpaceOnUse">
<stop offset="0.09192" stop-color="#6CC04A"/>
<stop offset="0.2864" stop-color="#66B848"/>
<stop offset="0.5968" stop-color="#54A044"/>
<stop offset="0.8624" stop-color="#41873F"/>
</linearGradient>
<linearGradient id="paint3_linear_401:472" x1="144.522" y1="182.335" x2="257.112" y2="182.335" gradientUnits="userSpaceOnUse">
<stop offset="0.09192" stop-color="#6CC04A"/>
<stop offset="0.2864" stop-color="#66B848"/>
<stop offset="0.5968" stop-color="#54A044"/>
<stop offset="0.8624" stop-color="#41873F"/>
</linearGradient>
<linearGradient id="paint4_linear_401:472" x1="273.515" y1="92.6261" x2="244.992" y2="242.089" gradientUnits="userSpaceOnUse">
<stop stop-color="#41873F"/>
<stop offset="0.3288" stop-color="#418B3D"/>
<stop offset="0.6352" stop-color="#419637"/>
<stop offset="0.9319" stop-color="#3FA92D"/>
<stop offset="1" stop-color="#3FAE2A"/>
</linearGradient>
</defs>
</svg>
