<svg width="54" height="54" viewBox="0 0 54 54" fill="none" xmlns="http://www.w3.org/2000/svg">
<circle cx="27" cy="27" r="25" stroke="#924E96" stroke-width="3"/>
<path d="M29.3261 22.4859V8C29.3261 7.78201 29.1849 7.58915 28.9771 7.52334C28.7692 7.45752 28.5427 7.53392 28.4172 7.71216L12.5912 30.191C12.4837 30.3437 12.4702 30.5435 12.5562 30.7092C12.6422 30.8749 12.8133 30.9789 13 30.9789H22.8478V46C22.8478 46.2142 22.9843 46.4046 23.1872 46.4735C23.39 46.5423 23.6142 46.4743 23.7446 46.3043L41.3967 23.2902C41.5126 23.1392 41.5326 22.9354 41.4484 22.7647C41.3642 22.594 41.1904 22.4859 41 22.4859H29.3261Z" fill="#924E96" stroke="#924E96" stroke-linejoin="round"/>
</svg>
