<svg xmlns="http://www.w3.org/2000/svg" xmlns:xlink="http://www.w3.org/1999/xlink" viewBox="0 0 65 42" fill="#fff" fill-rule="evenodd" stroke="#000" stroke-linecap="round" stroke-linejoin="round"><use xlink:href="#A" x=".5" y=".5"/><symbol id="A" overflow="visible"><path d="M62.091 8.508c-1.114.1-5.75 1.15-7.308 1.483-1.67.444-16.913 12.222-17.915 15.114-.222 1-.333 2.54-.333 3.988l-.112 2.337c0 1.668.463 4.358.685 5.804 1.002.223 8.256.028 9.6.25l-.164 2.992c-1.304-.095-10.515-.073-15.778-.073-2.67 0-11.258.295-13.897.215l.5-2.845c1.447-.112 7.437.26 8.754-1.13.654-.7.446-1.43.446-5.434v-1.9c0-.9 0-2.56-.223-4.12-.556-1.67-13.983-18.435-17.433-21.105-1.002-.333-7.28-.96-8.836-1.296L0 .225c.777-.4 7.756.095 14.53-.156 4.45-.165 14.607 0 15.86.15l-.32 2.258c-1.335.334-7.766.458-9.435.903 4.34 6.454 11.202 14.763 13.428 18 1.225-1.78 11.982-9.18 12.315-11.74-1.67-.335-7.196-1.13-8.087-1.13l-.53-2.914c1.515-.237 9.482 0 13.442 0L64 5.766 62.102 8.51" stroke="none" fill="#7b0099" fill-rule="nonzero"/></symbol></svg>